<svg data-v-665648a0="" id="overlay" class="maskOverlay" style="fill: rgb(53, 53, 53); stroke: rgb(53, 53, 53); position: absolute; width: 85%; "><!--?xml version="1.0" encoding="UTF-8"?--><svg id="Layer_1" xmlns="http://www.w3.org/2000/svg" xmlns:xlink="http://www.w3.org/1999/xlink" viewBox="0 0 9000 9000"><defs><style>.cls-1,.cls-2{fill:none;}.cls-3{clip-path:url(#clippath);}.cls-4{mask:url(#mask);}.cls-5{fff;}.cls-6{16133e;}.cls-2{stroke:#000;stroke-linejoin:round;stroke-width:40px;}</style><clipPath id="clippath"><rect class="cls-1" width="9000" height="9000"></rect></clipPath><mask id="mask" x="-21" y="525" width="9041" height="7950" maskUnits="userSpaceOnUse"><g id="path-1-outside-1_6964_97938"><rect class="cls-5" x="-21" y="525" width="9041" height="7950"></rect><path d="m8999.79,3267.81c0-.66.33-1.24.16-1.89l-535.09-2318.78s-.33-.49-.49-.82c-.41-1.4-1.23-2.55-2.14-3.78-.49-.66-.82-1.4-1.48-1.97-.16-.16-.24-.41-.41-.58-1.23-.99-2.71-1.4-4.19-1.81-.5-.16-.82-.58-1.4-.66l-1231.17-233.51h-.16l-837.66-158.85s-.74.08-1.07,0c-1.4-.16-2.71,0-4.11.25-.58.16-1.07.25-1.65.41-1.39.49-2.71,1.4-3.86,2.38-.25.25-.58.25-.82.49l-1810.58,1881.53-1952.89-1881.78c-1.48-1.4-3.21-2.22-5.1-2.79-.58-.17-1.07-.17-1.65-.25-.82-.16-1.64-.41-2.46-.41-.58,0-1.15.33-1.73.41-.33,0-.66-.08-1.07,0l-2033.39,535.01c-.74.16-1.23.82-1.97,1.15-1.15.49-2.39.82-3.37,1.64-.17.17-.17.42-.33.58-.66.66-.99,1.48-1.48,2.3-.74,1.15-1.48,2.3-1.81,3.62,0,.25-.33.41-.33.74L.2,4194.1c-.66,3.62.33,7.4,2.63,10.28l1768.72,2176.04c.66.83,1.4,1.57,2.31,2.22l2782.58,2069.08s.57.08.9.24c1.98,1.32,4.2,2.22,6.66,2.22s4.53-.82,6.5-2.05c.25-.17.57-.08.82-.25l3139.25-2211.72c1.4-.99,2.55-2.22,3.38-3.62.16-.33.24-.74.41-1.07.08-.25.41-.33.49-.58l1284.28-2960.92c.33-.74,0-1.56.25-2.38.25-1.23.41-2.38.33-3.7l.08-.08ZM6384.11,575.17l436.35,387.26-2170.04,1414.36,1733.69-1801.62Zm478.03,390.38l355.52-231.78,370.65,535.5-267.71,103.19-458.46-406.91h0Zm431.74,417.18l-2622,1010.33,2168.23-1413.12,453.85,402.88-.08-.09Zm309.32-92l596.75,862.24-858.05-761.6,261.21-100.64h.09Zm24.33-9.37l809.3-311.87-174.39,1229.2-634.91-917.33h0Zm-14.88-21.46l-363.5-525.23,1157.09,219.45-793.59,305.78Zm-770.24-311.87l-416.2-369.5,761.44,144.46-345.24,225.04h0Zm-2328.15,1469.94l-2737.77-928.84,826.15-913.31,1911.7,1842.23-.08-.08Zm-2763.92-937.72l-1137.68-386.03,1951.33-513.46-813.65,899.49Zm-18.58,20.55l-842.43,931.39-303.23-1320.13,1145.74,388.74h-.08Zm26.15,8.88l2801.32,950.47h.17l.49.16c.41.17.82.08,1.32.17.82.16,1.56.33,2.38.41.66,0,1.32,0,1.98-.17.74-.08,1.48-.24,2.22-.41.24-.08.49,0,.74-.16l2746.73-1058.34,941.67,835.85-317.45,2237.21-3375.39,3946.99-3164.34-3767.99-503.51-2191.58,861.67-952.69v.08Zm6520.56,756.92l693.12,1001.44-1001.36,1170.9,308.24-2172.34h0Zm-2166.42,4384.32c40.61-40.54,914.86-252.5,1531.19-394.25l-3003.76,2116.27,1472.57-1722.02h0Zm36.42-42.59l1784.35-2086.51-240.91,1697.61c-174.39,39.95-1278.94,294.26-1543.44,388.9Zm-4736.3-1900.11l1270.14,1512.36-891.11,137.39-379.03-1649.84v.09Zm1289.21,1535.13l1783.12,2123.18-2671.1-1986.2,887.98-136.98h0Zm-1337.56-1632.15L202.87,3228.84l672.56-743.52,488.38,2125.89h0Zm12.5,54.34l369.58,1608.73L247.35,3321.25l1128.97,1344.3h0Zm6587.25-179.81l978.66-1144.43-1213.16,2797.14,234.5-1652.71Zm320.16-2256.21l171.68-1210.12,504.83,2187.64-676.59-977.52h.08ZM570.15,1156.14l298.38,1299-662.12,732.09,363.74-2031v-.09ZM191.85,3268.05l1524.53,3004.17L26.26,4192.87l165.59-924.82h0Z"></path></g></mask></defs><g class="cls-3"><g><path class="cls-6" d="m8999.79,3267.81c0-.66.33-1.24.16-1.89l-535.09-2318.78s-.33-.49-.49-.82c-.41-1.4-1.23-2.55-2.14-3.78-.49-.66-.82-1.4-1.48-1.97-.16-.16-.24-.41-.41-.58-1.23-.99-2.71-1.4-4.19-1.81-.5-.16-.82-.58-1.4-.66l-1231.17-233.51h-.16l-837.66-158.85s-.74.08-1.07,0c-1.4-.16-2.71,0-4.11.25-.58.16-1.07.25-1.65.41-1.39.49-2.71,1.4-3.86,2.38-.25.25-.58.25-.82.49l-1810.58,1881.53-1952.89-1881.78c-1.48-1.4-3.21-2.22-5.1-2.79-.58-.17-1.07-.17-1.65-.25-.82-.16-1.64-.41-2.46-.41-.58,0-1.15.33-1.73.41-.33,0-.66-.08-1.07,0l-2033.39,535.01c-.74.16-1.23.82-1.97,1.15-1.15.49-2.39.82-3.37,1.64-.17.17-.17.42-.33.58-.66.66-.99,1.48-1.48,2.3-.74,1.15-1.48,2.3-1.81,3.62,0,.25-.33.41-.33.74L.2,4194.1c-.66,3.62.33,7.4,2.63,10.28l1768.72,2176.04c.66.83,1.4,1.57,2.31,2.22l2782.58,2069.08s.57.08.9.24c1.98,1.32,4.2,2.22,6.66,2.22s4.53-.82,6.5-2.05c.25-.17.57-.08.82-.25l3139.25-2211.72c1.4-.99,2.55-2.22,3.38-3.62.16-.33.24-.74.41-1.07.08-.25.41-.33.49-.58l1284.28-2960.92c.33-.74,0-1.56.25-2.38.25-1.23.41-2.38.33-3.7l.08-.08ZM6384.11,575.17l436.35,387.26-2170.04,1414.36,1733.69-1801.62Zm478.03,390.38l355.52-231.78,370.65,535.5-267.71,103.19-458.46-406.91h0Zm431.74,417.18l-2622,1010.33,2168.23-1413.12,453.85,402.88-.08-.09Zm309.32-92l596.75,862.24-858.05-761.6,261.21-100.64h.09Zm24.33-9.37l809.3-311.87-174.39,1229.2-634.91-917.33h0Zm-14.88-21.46l-363.5-525.23,1157.09,219.45-793.59,305.78Zm-770.24-311.87l-416.2-369.5,761.44,144.46-345.24,225.04h0Zm-2328.15,1469.94l-2737.77-928.84,826.15-913.31,1911.7,1842.23-.08-.08Zm-2763.92-937.72l-1137.68-386.03,1951.33-513.46-813.65,899.49Zm-18.58,20.55l-842.43,931.39-303.23-1320.13,1145.74,388.74h-.08Zm26.15,8.88l2801.32,950.47h.17l.49.16c.41.17.82.08,1.32.17.82.16,1.56.33,2.38.41.66,0,1.32,0,1.98-.17.74-.08,1.48-.24,2.22-.41.24-.08.49,0,.74-.16l2746.73-1058.34,941.67,835.85-317.45,2237.21-3375.39,3946.99-3164.34-3767.99-503.51-2191.58,861.67-952.69v.08Zm6520.56,756.92l693.12,1001.44-1001.36,1170.9,308.24-2172.34h0Zm-2166.42,4384.32c40.61-40.54,914.86-252.5,1531.19-394.25l-3003.76,2116.27,1472.57-1722.02h0Zm36.42-42.59l1784.35-2086.51-240.91,1697.61c-174.39,39.95-1278.94,294.26-1543.44,388.9Zm-4736.3-1900.11l1270.14,1512.36-891.11,137.39-379.03-1649.84v.09Zm1289.21,1535.13l1783.12,2123.18-2671.1-1986.2,887.98-136.98h0Zm-1337.56-1632.15L202.87,3228.84l672.56-743.52,488.38,2125.89h0Zm12.5,54.34l369.58,1608.73L247.35,3321.25l1128.97,1344.3h0Zm6587.25-179.81l978.66-1144.43-1213.16,2797.14,234.5-1652.71Zm320.16-2256.21l171.68-1210.12,504.83,2187.64-676.59-977.52h.08ZM570.15,1156.14l298.38,1299-662.12,732.09,363.74-2031v-.09ZM191.85,3268.05l1524.53,3004.17L26.26,4192.87l165.59-924.82h0Z"></path><g class="cls-4"><path class="cls-2" d="m8999.79,3267.81c0-.66.33-1.24.16-1.89l-535.09-2318.78s-.33-.49-.49-.82c-.41-1.4-1.23-2.55-2.14-3.78-.49-.66-.82-1.4-1.48-1.97-.16-.16-.24-.41-.41-.58-1.23-.99-2.71-1.4-4.19-1.81-.5-.16-.82-.58-1.4-.66l-1231.17-233.51h-.16l-837.66-158.85s-.74.08-1.07,0c-1.4-.16-2.71,0-4.11.25-.58.16-1.07.25-1.65.41-1.39.49-2.71,1.4-3.86,2.38-.25.25-.58.25-.82.49l-1810.58,1881.53-1952.89-1881.78c-1.48-1.4-3.21-2.22-5.1-2.79-.58-.17-1.07-.17-1.65-.25-.82-.16-1.64-.41-2.46-.41-.58,0-1.15.33-1.73.41-.33,0-.66-.08-1.07,0l-2033.39,535.01c-.74.16-1.23.82-1.97,1.15-1.15.49-2.39.82-3.37,1.64-.17.17-.17.42-.33.58-.66.66-.99,1.48-1.48,2.3-.74,1.15-1.48,2.3-1.81,3.62,0,.25-.33.41-.33.74L.2,4194.1c-.66,3.62.33,7.4,2.63,10.28l1768.72,2176.04c.66.83,1.4,1.57,2.31,2.22l2782.58,2069.08s.57.08.9.24c1.98,1.32,4.2,2.22,6.66,2.22s4.53-.82,6.5-2.05c.25-.17.57-.08.82-.25l3139.25-2211.72c1.4-.99,2.55-2.22,3.38-3.62.16-.33.24-.74.41-1.07.08-.25.41-.33.49-.58l1284.28-2960.92c.33-.74,0-1.56.25-2.38.25-1.23.41-2.38.33-3.7l.08-.08ZM6384.11,575.17l436.35,387.26-2170.04,1414.36,1733.69-1801.62Zm478.03,390.38l355.52-231.78,370.65,535.5-267.71,103.19-458.46-406.91h0Zm431.74,417.18l-2622,1010.33,2168.23-1413.12,453.85,402.88-.08-.09Zm309.32-92l596.75,862.24-858.05-761.6,261.21-100.64h.09Zm24.33-9.37l809.3-311.87-174.39,1229.2-634.91-917.33h0Zm-14.88-21.46l-363.5-525.23,1157.09,219.45-793.59,305.78Zm-770.24-311.87l-416.2-369.5,761.44,144.46-345.24,225.04h0Zm-2328.15,1469.94l-2737.77-928.84,826.15-913.31,1911.7,1842.23-.08-.08Zm-2763.92-937.72l-1137.68-386.03,1951.33-513.46-813.65,899.49Zm-18.58,20.55l-842.43,931.39-303.23-1320.13,1145.74,388.74h-.08Zm26.15,8.88l2801.32,950.47h.17l.49.16c.41.17.82.08,1.32.17.82.16,1.56.33,2.38.41.66,0,1.32,0,1.98-.17.74-.08,1.48-.24,2.22-.41.24-.08.49,0,.74-.16l2746.73-1058.34,941.67,835.85-317.45,2237.21-3375.39,3946.99-3164.34-3767.99-503.51-2191.58,861.67-952.69v.08Zm6520.56,756.92l693.12,1001.44-1001.36,1170.9,308.24-2172.34h0Zm-2166.42,4384.32c40.61-40.54,914.86-252.5,1531.19-394.25l-3003.76,2116.27,1472.57-1722.02h0Zm36.42-42.59l1784.35-2086.51-240.91,1697.61c-174.39,39.95-1278.94,294.26-1543.44,388.9Zm-4736.3-1900.11l1270.14,1512.36-891.11,137.39-379.03-1649.84v.09Zm1289.21,1535.13l1783.12,2123.18-2671.1-1986.2,887.98-136.98h0Zm-1337.56-1632.15L202.87,3228.84l672.56-743.52,488.38,2125.89h0Zm12.5,54.34l369.58,1608.73L247.35,3321.25l1128.97,1344.3h0Zm6587.25-179.81l978.66-1144.43-1213.16,2797.14,234.5-1652.71Zm320.16-2256.21l171.68-1210.12,504.83,2187.64-676.59-977.52h.08ZM570.15,1156.14l298.38,1299-662.12,732.09,363.74-2031v-.09ZM191.85,3268.05l1524.53,3004.17L26.26,4192.87l165.59-924.82h0Z"></path></g></g></g></svg></svg>