<svg data-v-665648a0="" id="overlay" class="maskOverlay" style="fill: rgb(53, 53, 53); stroke: rgb(53, 53, 53); position: absolute; width: 85%; "><!--?xml version="1.0" encoding="UTF-8"?--><svg id="Layer_1" xmlns="http://www.w3.org/2000/svg" viewBox="0 0 9000 9000"><defs><style>.cls-1{231f20;}</style></defs><path class="cls-1" d="m8558.02,5642.61c-22.53-15.64-301.42-81.76-297.59-119.37,0,0-78.35-274.61-78.35-274.61-21.33-85.78-143.92-108.4-194.22-35.44-22.21,16.83-170.63,261.18-205.49,246.13-78.44,11.16-346.28-56.49-386.25,47.4-64.88,89.85,138.37,277.17,172.51,348.82,8.01,11.25,9.96,25.72,5.21,38.7-13.85,78.61-160.56,311.44-74.27,381.99,65.53,89.38,306.28-45.87,385.06-56.27,28.17-23.94,239.51,173.29,263.21,183.09,67.97,57.21,179.79,2.61,177.96-85.48,7.74-26.27-15.28-311.88,21.58-319.91,0,0,236.95-159.37,236.95-159.37,75.03-46.8,58.61-170.37-26.31-195.68Z"></path><path class="cls-1" d="m7800.68,6950.97l-104.09-54.99c-11.05-43.94,2.94-156.45-56.97-171.21-55.48-26.53-116.38,69.86-152.29,96.78-45.21-3.08-147.86-51.15-180.43,1.27-42.39,44.56,30.47,132.29,44.97,174.75-16.89,42.04-94.34,124.83-54.55,171.99,29.33,54.06,135.2,11.89,180.08,11.22,41.47,40.13,115.05,160.32,178.93,83.69h0c19.05-17.54,27.41-122.52,34.12-146.47,66.19-30.27,217.8-77.89,110.22-167.02Zm-15.91,30.11h0,0Z"></path><g><path class="cls-1" d="m6175.57,1075.2c-47.52-72.01,17.21-175.1,102.9-162.97,26.86-4.9,300.45,50.14,312.65,15.02,0,0,181.18-211.87,181.18-211.87,53.83-67.45,171.78-37.72,186.79,47.51,81.97,366.24-2.6,261.48,339.83,408.82,80.81,30.37,88.92,151.73,12.53,192.33,0,0-241.42,139.39-241.42,139.39-35.82,4.47-33.77,286.59-42.4,310.12-4.09,85.62-116.6,131.87-179.03,71.38,0,0-207.17-186.53-207.17-186.53-15.83-32.65-282.64,56.4-308.05,55.51-83.2,22.99-161.14-70.48-123.2-148.21,148.49-341.87,155.37-212.23-34.61-530.49Z"></path><path class="cls-1" d="m6865.38,2611.83c-28.58,129.09,111.91,78.36,179.46,61.32,42.6,34.82,122.73,139.93,176.29,62.24,16.74-18.58,15.05-116.7,19.38-140.23,34.45-26.14,136.42-55.82,126.82-113.81,2.24-58.56-103.28-75.24-140.54-96.39-14.28-40.81-10.89-147.03-69.06-155.78-57.23-18.68-101.51,73.1-134.98,103.89-43.25.89-143.24-35.02-169.61,17.52-36.22,46.06,39.34,121.57,57.04,160.58l-44.82,100.66h0Z"></path><path class="cls-1" d="m7514.35,2095.28c32.59,48.62,127.79.18,170.34-4.64,43.03,35.14,123.5,140.98,176.91,61.3,15.76-18.16,14.61-116.46,18.76-139.3,34.45-26.13,136.45-55.83,126.82-113.82,2.22-58.55-103.28-75.22-140.54-96.38-14.21-40.84-10.93-147.01-69.05-155.79-54.98-20.18-103.46,74.98-135.09,103.88-43.22.89-143.22-35.02-169.5,17.54-36.2,46.05,39.34,121.55,57.05,160.57-12.61,41.27-77.48,125.45-35.7,166.63Z"></path></g><path class="cls-1" d="m408.81,5642.61c22.53-15.64,301.42-81.76,297.59-119.37,0,0,78.35-274.61,78.35-274.61,21.33-85.78,143.92-108.4,194.22-35.44,22.21,16.83,170.63,261.18,205.49,246.13,78.44,11.16,346.28-56.49,386.25,47.4,64.88,89.85-138.37,277.17-172.51,348.82-8.01,11.25-9.96,25.72-5.21,38.7,13.85,78.61,160.56,311.44,74.27,381.99-65.53,89.38-306.28-45.87-385.06-56.27-28.17-23.94-239.51,173.29-263.21,183.09-67.97,57.21-179.79,2.61-177.96-85.48-7.74-26.27,15.28-311.88-21.58-319.91,0,0-236.95-159.37-236.95-159.37-75.03-46.8-58.61-170.37,26.31-195.68Z"></path><path class="cls-1" d="m1166.16,6950.97l104.09-54.99c11.05-43.94-2.94-156.45,56.97-171.21,55.48-26.53,116.38,69.86,152.29,96.78,45.21-3.08,147.86-51.15,180.43,1.27,42.39,44.56-30.47,132.29-44.97,174.75,16.89,42.04,94.34,124.83,54.55,171.99-29.33,54.06-135.2,11.89-180.08,11.22-41.47,40.13-115.05,160.32-178.93,83.69h0c-19.05-17.54-27.41-122.52-34.12-146.47-66.19-30.27-217.8-77.89-110.22-167.02Zm15.91,30.11h0,0Z"></path><g><path class="cls-1" d="m2791.26,1075.2c47.52-72.01-17.21-175.1-102.9-162.97-26.86-4.9-300.45,50.14-312.65,15.02,0,0-181.18-211.87-181.18-211.87-53.83-67.45-171.78-37.72-186.79,47.51-81.97,366.24,2.6,261.48-339.83,408.82-80.81,30.37-88.92,151.73-12.53,192.33,0,0,241.42,139.39,241.42,139.39,35.82,4.47,33.77,286.59,42.4,310.12,4.09,85.62,116.6,131.87,179.03,71.38,0,0,207.17-186.53,207.17-186.53,15.83-32.65,282.64,56.4,308.05,55.51,83.2,22.99,161.14-70.48,123.2-148.21-148.49-341.87-155.37-212.23,34.61-530.49Z"></path><path class="cls-1" d="m2101.45,2611.83c28.58,129.09-111.91,78.36-179.46,61.32-42.6,34.82-122.73,139.93-176.29,62.24-16.74-18.58-15.05-116.7-19.38-140.23-34.45-26.14-136.42-55.82-126.82-113.81-2.24-58.56,103.28-75.24,140.54-96.39,14.28-40.81,10.89-147.03,69.06-155.78,57.23-18.68,101.51,73.1,134.98,103.89,43.25.89,143.24-35.02,169.61,17.52,36.22,46.06-39.34,121.57-57.04,160.58l44.82,100.66h0Z"></path><path class="cls-1" d="m1452.49,2095.28c-32.59,48.62-127.79.18-170.34-4.64-43.03,35.14-123.5,140.98-176.91,61.3-15.76-18.16-14.61-116.46-18.76-139.3-34.45-26.13-136.45-55.83-126.82-113.82-2.22-58.55,103.28-75.22,140.54-96.38,14.21-40.84,10.93-147.01,69.05-155.79,54.98-20.18,103.46,74.98,135.09,103.88,43.22.89,143.22-35.02,169.5,17.54,36.2,46.05-39.34,121.55-57.05,160.57,12.61,41.27,77.48,125.45,35.7,166.63Z"></path></g></svg></svg>