<svg data-v-665648a0="" id="overlay" class="maskOverlay" style="fill: rgb(53, 53, 53); stroke: rgb(53, 53, 53); position: absolute; width: 85%; "><!--?xml version="1.0" encoding="UTF-8"?--><svg id="Layer_1" xmlns="http://www.w3.org/2000/svg" viewBox="0 0 9000 9000"><defs><style>.cls-1{231f20;}</style></defs><path class="cls-1" d="m2784.81,1466.32c-191.88-41.1-341.25-190.48-382.35-382.35-37.16-173.48-92.06-283.24-153.31-283.24s-116.15,109.76-153.31,283.24c-41.1,191.87-190.48,341.25-382.35,382.35-173.48,37.16-283.24,92.06-283.24,153.31s109.76,116.15,283.24,153.31c191.88,41.1,341.25,190.48,382.35,382.35,37.16,173.48,92.06,283.24,153.31,283.24s116.15-109.76,153.31-283.24c41.1-191.87,190.48-341.25,382.36-382.35,173.48-37.16,283.24-92.06,283.24-153.31s-109.76-116.15-283.24-153.31ZM637.09,2601.96c96.58,20.69,171.76,95.87,192.44,192.45,18.7,87.31,46.33,142.56,77.16,142.56s58.46-55.25,77.16-142.56c20.69-96.58,95.87-171.76,192.44-192.45,87.31-18.7,142.56-46.33,142.56-77.16s-55.24-58.46-142.56-77.16c-96.57-20.69-171.76-95.87-192.44-192.45-18.7-87.31-46.33-142.56-77.16-142.56s-58.46,55.25-77.16,142.56c-20.69,96.58-95.87,171.76-192.44,192.45-87.31,18.7-142.56,46.33-142.56,77.16s55.25,58.46,142.56,77.16Zm872.57,3365.22c-107.44-23.01-191.07-106.65-214.09-214.09-20.81-97.13-51.54-158.59-85.84-158.59s-65.03,61.46-85.84,158.59c-23.02,107.44-106.65,191.07-214.09,214.09-97.13,20.81-158.59,51.54-158.59,85.84s61.46,65.04,158.59,85.84c107.44,23.01,191.07,106.65,214.09,214.09,20.81,97.13,51.54,158.59,85.84,158.59s65.03-61.46,85.84-158.59c23.02-107.43,106.65-191.07,214.09-214.09,97.13-20.81,158.59-51.54,158.59-85.84s-61.46-65.03-158.59-85.84Zm-751.21,968.81c-107.44-23.01-191.07-106.65-214.09-214.09-20.81-97.13-51.54-158.59-85.84-158.59s-65.03,61.46-85.84,158.59c-23.01,107.44-106.65,191.08-214.09,214.09C61.46,6956.81,0,6987.54,0,7021.84s61.46,65.03,158.59,85.84c107.44,23.01,191.07,106.65,214.09,214.09,20.81,97.13,51.54,158.59,85.84,158.59s65.03-61.46,85.84-158.59c23.02-107.44,106.65-191.07,214.09-214.09,97.13-20.81,158.59-51.54,158.59-85.84s-61.46-65.03-158.59-85.84ZM7569.76,1619.63c0-61.26-109.76-116.15-283.24-153.31-191.88-41.1-341.25-190.48-382.35-382.35-37.16-173.48-92.06-283.24-153.31-283.24s-116.15,109.76-153.31,283.24c-41.1,191.87-190.48,341.25-382.35,382.35-173.48,37.16-283.24,92.06-283.24,153.31s109.76,116.15,283.24,153.31c191.88,41.1,341.25,190.48,382.36,382.35,37.16,173.48,92.06,283.24,153.31,283.24s116.15-109.76,153.31-283.24c41.1-191.87,190.48-341.25,382.36-382.35,173.48-37.16,283.24-92.06,283.24-153.31Zm253.93,982.34c96.58,20.69,171.76,95.87,192.44,192.45,18.7,87.31,46.33,142.56,77.16,142.56s58.46-55.25,77.16-142.56c20.69-96.58,95.87-171.76,192.44-192.45,87.31-18.7,142.56-46.33,142.56-77.16s-55.24-58.46-142.56-77.16c-96.57-20.69-171.76-95.87-192.44-192.45-18.7-87.31-46.33-142.56-77.16-142.56s-58.46,55.25-77.16,142.56c-20.69,96.58-95.87,171.76-192.44,192.45-87.31,18.7-142.56,46.33-142.56,77.16s55.25,58.46,142.56,77.16Zm425.1,3451.06c0-34.3-61.46-65.03-158.59-85.84-107.44-23.01-191.07-106.65-214.09-214.09-20.81-97.13-51.55-158.59-85.84-158.59s-65.04,61.46-85.84,158.59c-23.01,107.44-106.65,191.07-214.09,214.09-97.14,20.81-158.59,51.54-158.59,85.84s61.46,65.04,158.59,85.84c107.43,23.01,191.07,106.65,214.09,214.09,20.81,97.13,51.55,158.59,85.84,158.59s65.03-61.46,85.84-158.59c23.01-107.43,106.65-191.07,214.09-214.09,97.13-20.81,158.59-51.54,158.59-85.84Zm592.62,882.97c-107.44-23.01-191.07-106.65-214.09-214.09-20.81-97.13-51.54-158.59-85.84-158.59s-65.03,61.46-85.84,158.59c-23.02,107.44-106.65,191.08-214.09,214.09-97.13,20.81-158.59,51.54-158.59,85.84s61.46,65.03,158.59,85.84c107.44,23.01,191.07,106.65,214.09,214.09,20.81,97.13,51.54,158.59,85.84,158.59s65.03-61.46,85.84-158.59c23.02-107.44,106.65-191.07,214.09-214.09,97.13-20.81,158.59-51.54,158.59-85.84s-61.46-65.03-158.59-85.84Z"></path></svg></svg>