<svg data-v-665648a0="" id="overlay" class="maskOverlay" style="fill: rgb(53, 53, 53); stroke: rgb(53, 53, 53); position: absolute; width: 85%; "><!--?xml version="1.0" encoding="UTF-8"?--><svg id="Layer_1" xmlns="http://www.w3.org/2000/svg" viewBox="0 0 9000 9000"><path d="m7993.73,6027.05c79.73,163.9,196.46,269.9,330.97,315.15,67.66,22.75,141.16,30.02,218.45,21.59,142.6-15.54,251.56-80.08,256.13-82.82l18.04-10.83-11.73-17.99c-134.9-207.21-294.88-323.06-475.52-344.33-105.23-12.39-201.88,11.02-262.82,33.77l-29.81,12.24-58.39,25.88h0l14.67,47.33Zm766.91,228.85c-62.44,31.64-243.32,108.59-424.2,47.66-125.46-42.24-227.04-142.98-302.02-299.5,80.67-45.89,420.48-199.54,726.22,251.84Z"></path><path d="m8192.99,6348.41c-46.58,176.21-27.33,332.71,45.04,454.79,36.41,61.4,87.35,114.88,151.41,158.94,118.18,81.3,242.85,103.53,248.1,104.43l20.74,3.57,2.85-21.28c33.05-245.03-12.54-437.23-135.51-571.24-71.63-78.07-160.14-123.42-221.16-145.96l-30.57-10.18-61.12-18.5h0l-19.78,45.44Zm431.64,673.95c-67.96-16.78-255.22-76.55-352.48-240.77-67.47-113.89-78.68-256.51-33.33-424.04,91.07,17.88,448.8,123.28,385.81,664.81Z"></path><path d="m6388.19,8337.52l9.22-14.66-12.6-11.83c-48.11-45.12-108.77-66.66-180.31-64.03-307.36,11.33-729.79,466.6-747.62,485.98l-18.43,20.03,24.01,12.54c89.33,46.7,183.22,65.08,279.05,54.63,363.88-39.67,643.9-478.24,646.69-482.67Zm-882.97,403.57c51.62-53.26,197.9-198.41,362.24-310.36,215.35-146.71,375.9-180.6,477.36-100.82-34.21,50.12-138.56,193.2-285.54,306.05-193.96,148.91-380.32,184.24-554.06,105.14Z"></path><path d="m8443.01,8348.09l30.91,15.71-2.79-35.38c-21-267.22-100.55-521.55-236.48-756.15,33.38-.69,88.46-2.93,152.07-9.87,110.6-12.06,262.3-40.35,356.86-106.65l17.07-11.98-12.6-17.08h-.01c-4.57-6.18-465.03-616.59-1153.09-541.58-4.35.47-8.72,1-13.1,1.53-29.49-18.95-46.5-28.41-46.68-28.51l-28.62-15.63-.07,33.38c-1.34,985.21,927.16,1467.45,936.54,1472.21Zm260.21-914.21c-152.63,91.54-441.72,97.7-492.63,98.06-190.6-310.86-434.95-511.17-575.21-609.34,578.81-42.85,979.01,402.23,1067.84,511.28Zm-285.88,842.53c-168.74-97.84-842.29-538.82-859.9-1347.28,155.37,96.5,778.65,532.01,859.9,1347.28Z"></path><path d="m8050.56,6320.9c-24.03-16.18-52.59-21.65-80.36-15.43-28.29,6.35-52.29,23.98-67.57,49.64h0c-31.03,52.26-15.75,122.02,34.06,155.52,20.79,13.98,44.67,19.96,69.06,17.3,32.78-3.57,61.52-22.35,78.84-51.51,31.07-52.21,15.81-121.97-34.03-155.52Zm-21.24,33.97c32.03,21.55,41.82,66.46,21.82,100.11-9.68,16.27-24.82,27.43-42.64,31.43-17.46,3.88-35.41.46-50.57-9.74-32.03-21.55-41.81-66.46-21.81-100.11,9.67-16.26,24.8-27.42,42.61-31.42,2.4-.54,4.8-.94,7.21-1.2,15.13-1.65,30.3,2.13,43.39,10.93Z"></path><path d="m8655.4,8581.1c15.03-25.25,19.79-55.29,13.4-84.57-6.4-29.31-23.21-54.39-47.35-70.61-24.28-16.33-53.06-21.74-80.95-15.28-27.87,6.47-51.54,24.02-66.64,49.42-31,52.13-15.77,121.73,33.95,155.17,20.79,13.98,44.59,19.97,68.83,17.33,4.11-.45,8.19-1.14,12.11-2.05,27.87-6.47,51.54-24.02,66.64-49.42Zm-126.36.18c-31.91-21.47-41.66-66.23-21.73-99.77,9.58-16.09,24.52-27.2,42.03-31.26,2.5-.57,5-1,7.5-1.27,15.14-1.65,30.3,2.12,43.37,10.91,15.43,10.37,26.19,26.45,30.3,45.3,4.11,18.89,1.07,38.23-8.57,54.48-9.58,16.09-24.52,27.2-42.04,31.26-17.52,4.04-35.58.63-50.86-9.65Z"></path><path d="m6601.98,8440.09c28.33-6.56,52.38-24.4,67.73-50.22,15.31-25.73,20.15-56.31,13.64-86.11-6.51-29.82-23.63-55.34-48.2-71.87-24.67-16.61-53.86-22.11-82.2-15.52-28.33,6.56-52.38,24.39-67.73,50.22-15.31,25.74-20.15,56.32-13.62,86.11,6.52,29.83,23.62,55.36,48.18,71.88,21.12,14.21,45.3,20.31,69.91,17.62,4.11-.45,8.24-1.15,12.29-2.1Zm-66.07-41.33c-17.93-12.07-30.44-30.77-35.24-52.65-4.78-21.93-1.24-44.39,9.96-63.24,11.16-18.75,28.58-31.69,49.04-36.43h0c2.9-.68,5.88-1.19,8.86-1.51,17.74-1.93,35.2,2.48,50.47,12.76,17.95,12.08,30.46,30.77,35.24,52.65,4.78,21.92,1.24,44.38-9.96,63.24-11.17,18.75-28.58,31.69-49.04,36.44-20.48,4.72-41.54.73-59.34-11.25Z"></path><path d="m7530.58,8712.11c20.1-33.8,10.22-78.95-22.03-100.65h0c-15.64-10.52-34.3-14.05-52.58-9.92-18.12,4.21-33.49,15.6-43.28,32.09-20.11,33.81-10.23,78.95,22.03,100.65,13.27,8.93,29.16,12.92,44.76,11.22,21.23-2.31,39.86-14.48,51.09-33.38Zm-79.72-3.64c-18.74-12.61-24.45-38.88-12.73-58.56,5.6-9.42,14.33-15.92,24.55-18.29,1.46-.33,2.91-.58,4.37-.74,8.85-.97,17.72,1.24,25.35,6.38,18.73,12.61,24.45,38.87,12.75,58.55-5.65,9.5-14.49,16.02-24.87,18.35-10.15,2.27-20.6.26-29.43-5.69Z"></path><path d="m6492.55,8664.94c18.12-4.19,33.49-15.59,43.29-32.08,20.11-33.8,10.23-78.96-22.03-100.66-15.59-10.49-34.11-14.03-52.13-9.98-18.32,4.12-33.85,15.54-43.73,32.14-20.11,33.8-10.22,78.96,22.03,100.66,13.5,9.08,28.96,12.97,44.71,11.25,2.64-.29,5.29-.74,7.86-1.34Zm-36.43-35.72c-18.73-12.61-24.45-38.88-12.75-58.55,5.67-9.5,14.51-16.01,24.9-18.34,1.38-.31,2.77-.54,4.15-.69,8.8-.96,17.63,1.24,25.25,6.37,18.74,12.61,24.45,38.88,12.73,58.56h0c-5.58,9.42-14.31,15.91-24.59,18.29-10.2,2.41-20.74.39-29.69-5.64Z"></path><polygon points="6860.57 7963.75 8896.68 4494.7 8896.98 4491.99 8896.98 4489.04 6707.32 761.59 5473.2 748.06 5473.2 788.65 6685.54 802.02 8852.46 4492.07 6802.37 7985.09 6860.57 7963.75"></polygon><path d="m6695.38,8939.84c.3-.11,2.03-.81,5.05-2.13,55.4-24.25,538.73-256.57,451.91-937.15l-1.25-9.75c36.77-113.6,55.95-214.59,57.15-300.76,12.45,25.7,26.01,50.64,40.47,74.39-6.37,209.02,62.48,352.45,145.91,448.93-15.41-4.21-31.33-2.26-44.97,5.65-14.21,8.24-24.19,21.85-28.1,38.31-7.91,33.52,12.19,68.65,44.81,78.31,13.63,4.03,27.58,3.21,40.34-2.38,17.14-7.5,29.52-22.55,33.96-41.28h0c2.5-10.6,2.19-21.35-.42-31.42,108.19,100.27,222.28,132.61,224.5,133.21l19.68,5.3-53.47-292.48c128.65,62.5,232.3,78.9,233.34,79.06l20.48,2.98-6.49-20.18c-41.13-128.05-102.11-243.07-181.25-341.86-64.28-80.25-140.82-150.26-227.49-208.07-146.87-97.98-278.19-131.38-309.08-138.26l-26.64,4.85c1.62,3.38,3.26,6.76,4.96,10.13,10.31,42.73,23.35,84.19,39.86,126.68,11.2,96.94-7.74,220.77-56.29,368.12-36.04,5.1-121.78,26.93-209.59,119.99-101.7,107.76-225.09,336.91-235.35,816.58l-.42,20.4,18.4-7.18Zm719.77-654.8c-2.24,9.41-7.91,17.16-15.96,21.83-7.88,4.57-17.16,5.63-26.1,2.98-18.94-5.61-30.61-26.06-26-45.58,2.24-9.4,7.9-17.15,15.95-21.82,7.91-4.56,17.17-5.63,26.12-3,18.95,5.61,30.61,26.07,26,45.58Zm235.76,76.06c-79.36-29.45-369.54-164.01-376.09-556.2,82,119.31,191.87,215.74,326.84,286.84l49.26,269.36Zm-475.09-849.57c105.37,28.17,506.48,164.95,670.49,643.45-97.29-21.11-480.38-128.82-641.76-538.32-4.85-38.86-14.51-74.17-28.73-105.13Zm-331.72,743.14c72.64-133.22,158.49-192.09,217.71-218.01,20.15-8.82,37.56-13.96,50.46-16.94-61.3,175.6-140.27,317.05-141.07,318.48l-2.48,4.41,22.55,14.33,2.77-4.92c3.26-5.79,77.29-138.07,137.06-302.92,23.28,252.66-32.12,467.65-164.85,639.29-100.97,130.59-218.05,196.28-262.05,217.8,8.01-276.77,55.06-495.94,139.9-651.53Z"></path><path d="m6667.48,8947.02c0-.07,0-.13,0-.2l.42-20.4c4.63-216.61,32.86-401.87,83.9-550.64,39-113.67,90.82-205.27,154.04-272.26,38.97-41.3,81.7-73.27,127.01-95.02,33.96-16.31,62.67-23.65,82.28-26.94,46.58-142.97,64.81-263.16,54.21-357.33-16.32-42.15-29.26-83.29-39.54-125.69-1.44-2.88-2.93-5.94-4.55-9.32-1.28-2.67-1.24-5.79.11-8.42,1.35-2.64,3.85-4.5,6.76-5.03l26.64-4.85c1.25-.23,2.53-.2,3.76.07,15.17,3.38,56.51,13.59,112.44,35.39,69.59,27.12,136.83,62.2,199.86,104.24,87.48,58.36,164.74,129.03,229.63,210.04,79.86,99.7,141.39,215.74,182.88,344.9l6.49,20.17c1,3.12.33,6.54-1.79,9.04-2.12,2.5-5.38,3.74-8.62,3.27l-20.48-2.98c-1-.15-97.46-15.49-219.29-71.93l50.14,274.24c.59,3.21-.51,6.49-2.91,8.7-2.4,2.21-5.76,3.03-8.91,2.19l-19.68-5.3c-1.1-.3-105.36-29.16-210.67-119.52-.3,3.62-.87,7.21-1.7,10.73,0,.02,0,.03-.01.05-5.14,21.64-19.49,39.04-39.38,47.75-14.84,6.5-31.04,7.46-46.84,2.79-31.88-9.45-53.33-40.08-53.33-72.68,0-5.62.64-11.29,1.97-16.93,4.52-19.03,16.08-34.78,32.58-44.34,8.66-5.02,18.15-7.99,27.91-8.84-40.06-50.16-71.55-106.44-93.73-167.62-29.15-80.39-42.58-170.34-39.93-267.37-7.9-13.08-15.56-26.55-22.91-40.3-5.29,78.14-23.88,167.09-55.45,265.04l.98,7.65c7.18,56.26,10.49,109.56,10.49,159.9,0,564.67-416.54,764.62-468.01,787.16-2.69,1.18-4.65,1.99-5.46,2.29l-18.35,7.16c-2.96,1.15-6.29.75-8.89-1.06-2.55-1.78-4.06-4.69-4.06-7.79Zm523.78-1268.26c0,88.02-20.06,193.4-59.89,314.28-1.13,3.43-4.11,5.93-7.69,6.43-32.44,4.59-117.27,25.18-204.01,117.1-100.56,106.55-222.57,333.62-232.77,810.26l-.13,6.18,5.15-2.01c.05-.02.1-.04.16-.06.3-.12,1.81-.73,4.54-1.92,50.23-21.99,456.61-217.24,456.61-770.01,0-49.52-3.25-101.84-10.32-157.23l-1.25-9.75c-.18-1.39-.05-2.8.38-4.13,36.43-112.56,55.5-212.81,56.69-297.97.06-4.4,3.14-8.19,7.44-9.14,4.3-.95,8.69,1.17,10.61,5.13,12.3,25.4,25.77,50.16,40.04,73.59.96,1.57,1.44,3.39,1.38,5.23-2.92,95.7,10.11,184.24,38.72,263.14,24.02,66.27,59.31,126.59,104.89,179.29,2.73,3.16,3.08,7.74.85,11.28-2.23,3.54-6.51,5.2-10.54,4.1-12.97-3.54-26.36-1.87-37.71,4.71-11.93,6.92-20.32,18.38-23.62,32.28-6.77,28.68,10.39,58.75,38.27,67.01,11.45,3.38,23.15,2.7,33.83-1.97,14.38-6.3,24.78-18.97,28.52-34.77,0,0,0,0,0,0,2.05-8.7,1.92-17.98-.37-26.83-1.06-4.08.7-8.38,4.32-10.54,3.62-2.16,8.24-1.68,11.33,1.19,107.09,99.25,219.4,130.7,220.53,131.01l5.15,1.39-50.77-277.69c-.64-3.52.75-7.11,3.6-9.27,2.85-2.17,6.68-2.54,9.9-.98,127.36,61.88,229.59,78.05,230.6,78.21l5.36.78-1.83-5.67c-40.78-126.95-101.21-240.95-179.62-338.83-63.67-79.49-139.49-148.83-225.35-206.11-61.88-41.28-127.9-75.72-196.21-102.34-52.55-20.48-91.72-30.46-107.8-34.12l-12.48,2.27c.09.26.16.52.23.79,10.21,42.33,23.12,83.37,39.48,125.47.29.76.49,1.54.58,2.35,2.12,18.37,3.18,37.69,3.18,57.91Zm-496.57,1227.45c0-.09,0-.18,0-.27,8.05-278.26,55.51-498.91,141.06-655.8h0c73.93-135.58,161.66-195.65,222.24-222.17,17.52-7.67,35.06-13.55,52.14-17.49,3.37-.78,6.9.34,9.21,2.92,2.31,2.58,3.04,6.21,1.9,9.47-56.48,161.79-127.39,293.83-139.85,316.56l6.5,4.13c12.94-23.45,79.62-146.92,134.27-297.67,1.52-4.18,5.73-6.75,10.14-6.19,4.41.57,7.84,4.12,8.25,8.55,23.51,255.11-32.61,472.45-166.79,645.98-101.83,131.69-219.52,198.09-265.39,220.53-2.99,1.46-6.52,1.25-9.32-.55-2.72-1.75-4.35-4.76-4.35-7.99Zm157.74-646.98c-82.47,151.24-128.95,363.55-138.24,631.24,51.65-27.2,154.37-91.27,244.53-207.87,123.59-159.83,179.38-358.11,166.11-589.77-56.72,146.35-119.64,258.75-122.53,263.87l-2.77,4.92c-1.28,2.27-3.44,3.92-5.96,4.56s-5.21.2-7.41-1.2l-22.55-14.33c-4.26-2.71-5.66-8.27-3.19-12.67l2.48-4.41c.76-1.35,74.15-132.63,134.36-299.97-10.46,3.2-21.06,7.14-31.66,11.79-57.86,25.33-141.82,82.99-213.18,213.86Zm313.88-747.69c0-2.2.76-4.38,2.24-6.13,2.37-2.81,6.16-4,9.72-3.05,49.61,13.26,179.75,54.86,316.39,154.35,75.85,55.23,143.15,120.51,200.02,194.02,68.37,88.38,122.4,189.71,160.61,301.18,1.11,3.24.39,6.83-1.89,9.4-2.28,2.56-5.76,3.7-9.11,2.97-46.76-10.15-169.58-42.61-299.9-124.76-72.69-45.82-137.38-100.54-192.29-162.65-66.12-74.79-118.74-161.16-156.4-256.71-.29-.74-.49-1.52-.59-2.31-4.73-37.84-14.13-72.27-27.94-102.35-.58-1.27-.87-2.62-.87-3.96Zm665.31,630.31c-37.13-103.12-88.21-197.07-151.97-279.49-55.77-72.09-121.77-136.12-196.18-190.29-119.27-86.84-233.33-128.68-291.25-146,10.29,26.83,17.54,56.42,21.6,88.23,36.81,93.04,88.12,177.14,152.52,249.99,53.71,60.75,117.03,114.3,188.19,159.16,114.42,72.13,222.82,105.16,277.09,118.41Zm-566.31-336.94c0-4.13,2.67-7.79,6.61-9.05,3.99-1.28,8.35.21,10.72,3.67,81.1,118,189.92,213.48,323.44,283.81,2.58,1.36,4.39,3.83,4.92,6.7l49.25,269.36c.61,3.36-.62,6.79-3.24,8.99-2.62,2.2-6.21,2.82-9.41,1.63-37.28-13.84-133.24-55.6-218.88-144.38-47.49-49.23-85.26-106.01-112.26-168.75-32.4-75.28-49.61-160-51.14-251.82,0-.05,0-.11,0-.16Zm327.82,293.08c-124.54-66.32-227.89-154.29-307.65-261.8,4.48,77.25,20.73,148.83,48.43,213.18,26.09,60.62,62.59,115.49,108.49,163.07,72.74,75.42,153.11,115.77,196.09,133.58l-45.35-248.03Zm-256.55,174.87c0-3.57.4-7.18,1.25-10.76,2.85-11.98,10.1-21.87,20.43-27.85,10.21-5.89,22.12-7.26,33.57-3.89,23.71,7.03,38.31,32.54,32.56,56.88,0,0,0,0,0,.01-2.85,11.97-10.11,21.87-20.44,27.85-10.16,5.89-22.08,7.26-33.56,3.87-20.21-5.99-33.81-25.43-33.81-46.11Zm70.08,3.46c0-12.47-8.12-24.15-20.22-27.74-6.4-1.88-13.03-1.13-18.68,2.12-5.75,3.33-9.82,8.94-11.45,15.78-3.46,14.68,5.26,30.07,19.46,34.27,6.42,1.89,13.04,1.15,18.64-2.09,5.77-3.34,9.85-8.95,11.48-15.79h0c.51-2.18.76-4.38.76-6.55Z"></path><path d="m5699.64,8251.94v-40.59l-3385.18-13.37L147.54,4507.93l2.3-3.05L2197.63,1014.91l-58.2,21.34-270.36,460.64c-10.09-40.78-22.68-80.48-38.41-121.11-10.6-94.17,7.63-214.37,54.21-357.33,19.61-3.29,48.33-10.63,82.28-26.94,45.31-21.76,88.04-53.73,127-95.02,63.22-66.99,115.05-158.59,154.04-272.26,51.04-148.77,79.26-334.03,83.9-550.64l.42-20.4c.06-3.18-1.46-6.17-4.06-7.98-2.6-1.82-5.94-2.22-8.89-1.06l-18.34,7.16c-.81.31-2.76,1.12-5.46,2.3-51.48,22.53-468.05,222.49-468.01,787.16,0,50.34,3.32,103.64,10.49,159.9l.98,7.65c-31.56,97.95-50.16,186.9-55.45,265.04-7.35-13.75-15-27.22-22.91-40.3,2.64-97.03-10.78-186.98-39.93-267.37-22.18-61.18-53.66-117.47-93.73-167.62,9.76-.85,19.25-3.82,27.91-8.84,16.49-9.57,28.06-25.31,32.58-44.34,9.04-38.33-13.99-78.53-51.36-89.61-15.81-4.67-32.01-3.71-46.84,2.79-19.86,8.69-34.2,26.06-39.36,47.66-.01.05-.02.09-.03.14-.83,3.52-1.4,7.11-1.7,10.73-105.31-90.36-209.57-119.23-210.67-119.52l-19.68-5.3c-3.15-.85-6.51-.02-8.91,2.19s-3.5,5.49-2.91,8.7l50.14,274.24c-121.68-56.36-218.28-71.78-219.29-71.93l-20.48-2.98c-3.24-.47-6.5.76-8.62,3.27-1.47,1.74-2.25,3.92-2.25,6.14,0,.97.15,1.96.46,2.91l6.49,20.17c41.49,129.16,103.02,245.2,182.88,344.9,64.89,81.01,142.15,151.68,229.63,210.04,63.03,42.04,130.27,77.12,199.86,104.24,55.93,21.8,97.26,32.01,112.43,35.39,1.24.28,2.52.3,3.76.07l10.01-1.82-357.74,609.5.03-12.64c1.34-985.21-927.16-1467.45-936.54-1472.21l-30.91-15.71,2.79,35.38c21,267.22,100.55,521.55,236.48,756.15-33.38.69-88.46,2.93-152.07,9.87-110.6,12.06-262.3,40.35-356.86,106.65l-17.07,11.98,12.6,17.08h.01c4.57,6.18,465.03,616.59,1153.09,541.58,4.35-.47,8.72-1,13.1-1.53,29.49,18.95,46.5,28.41,46.68,28.51l19.43,10.61-479.63,817.17c-69-140.3-165.28-237.75-276.61-290.55l59.19,17.92,19.78-45.44c46.58-176.21,27.33-332.71-45.04-454.79-36.41-61.4-87.35-114.88-151.41-158.94-118.18-81.3-242.85-103.53-248.1-104.43l-20.74-3.57-2.85,21.28c-33.05,245.03,12.54,437.23,135.51,571.24,56.88,61.99,124.38,103.33,180.33,129.02-61.89-17.66-128.33-22.78-197.85-15.2-142.6,15.54-251.56,80.08-256.13,82.82l-18.04,10.83,11.73,17.99c134.9,207.21,294.88,323.06,475.52,344.33,105.23,12.39,201.88-11.02,262.82-33.77l26.11-10.73L103.32,4505.3h0,0s-.3,2.72-.3,2.72v2.95h0s0,0,0,0l2189.65,3727.45,1234.12,13.53v-8.63l2172.85,8.63ZM582.66,723.6c168.74,97.84,842.29,538.82,859.9,1347.28-155.37-96.5-778.65-532.01-859.9-1347.28Zm-285.88,842.53c152.63-91.54,441.72-97.7,492.63-98.06,190.6,310.86,434.95,511.17,575.21,609.34-578.81,42.85-979.01-402.23-1067.84-511.28Zm78.58,411.51c67.96,16.78,255.22,76.55,352.48,240.77,67.47,113.89,78.68,256.51,33.33,424.04-91.07-17.88-448.8-123.28-385.81-664.81Zm-136.01,766.45c62.44-31.64,243.32-108.59,424.2-47.66,125.46,42.24,227.04,142.98,302.02,299.5-80.67,45.89-420.48,199.54-726.22-251.84ZM1594.09,717.16c1.63-6.85,5.71-12.46,11.48-15.81,5.6-3.25,12.23-3.99,18.64-2.09,14.2,4.2,22.92,19.58,19.46,34.27-1.63,6.84-5.7,12.45-11.45,15.78-5.64,3.25-12.28,4-18.67,2.12-14.2-4.21-22.92-19.58-19.46-34.27Zm-148.62,259.41c71.16,44.86,134.47,98.41,188.19,159.16,64.4,72.84,115.71,156.95,152.52,249.99,4.06,31.81,11.31,61.39,21.6,88.23-57.93-17.32-171.98-59.16-291.25-146-74.4-54.17-140.4-118.19-196.17-190.29-63.76-82.42-114.84-176.38-151.97-279.49,54.27,13.25,162.67,46.28,277.09,118.41Zm-83.96-322.57c42.98,17.81,123.35,58.16,196.09,133.58,45.89,47.58,82.39,102.44,108.49,163.07,27.7,64.35,43.95,135.93,48.43,213.18-79.77-107.51-183.11-195.48-307.65-261.8l-45.36-248.03Zm674.86-4.63l-22.55-14.33c-2.2-1.4-4.88-1.83-7.41-1.2-2.53.64-4.69,2.28-5.96,4.56l-2.77,4.92c-2.88,5.12-65.81,117.55-122.53,263.87-13.28-231.67,42.52-429.94,166.11-589.77,90.16-116.6,192.88-180.67,244.53-207.87-9.29,267.69-55.77,480-138.24,631.24-71.36,130.86-155.31,188.53-213.18,213.86-10.61,4.64-21.2,8.58-31.66,11.78,60.23-167.41,133.6-298.62,134.36-299.97l2.48-4.42c2.47-4.4,1.07-9.96-3.19-12.67Z"></path><path d="m2611.81,662.48l-9.22,14.66,12.6,11.83c48.11,45.12,108.77,66.66,180.31,64.03,307.36-11.33,729.79-466.6,747.62-485.98l18.43-20.03-24.01-12.54c-89.33-46.7-183.22-65.08-279.05-54.63-363.88,39.67-643.9,478.24-646.69,482.67Zm882.97-403.57c-51.62,53.26-197.9,198.41-362.24,310.36-215.35,146.71-375.9,180.6-477.36,100.82,34.21-50.12,138.56-193.2,285.54-306.05,193.96-148.91,380.32-184.24,554.06-105.14Z"></path><path d="m915.42,2523.58c-31.07,52.21-15.81,121.97,34.03,155.52,24.03,16.18,52.59,21.65,80.36,15.43,28.29-6.35,52.29-23.98,67.57-49.64h0c31.03-52.26,15.75-122.02-34.06-155.52-20.79-13.98-44.67-19.96-69.06-17.3-32.78,3.57-61.52,22.35-78.84,51.51Zm126.67-.25c32.03,21.55,41.81,66.46,21.81,100.11-9.67,16.26-24.8,27.42-42.61,31.42-2.4.54-4.8.94-7.21,1.2-15.13,1.65-30.3-2.13-43.39-10.93-32.03-21.55-41.82-66.46-21.82-100.11,9.68-16.27,24.82-27.43,42.64-31.43,17.46-3.88,35.41-.46,50.57,9.74Z"></path><path d="m526.15,539.93c31-52.13,15.77-121.73-33.95-155.17-20.79-13.98-44.59-19.97-68.83-17.33-4.11.45-8.19,1.14-12.11,2.05-27.87,6.47-51.54,24.02-66.64,49.42-15.03,25.25-19.79,55.29-13.4,84.57,6.4,29.31,23.21,54.39,47.35,70.61,24.28,16.33,53.06,21.74,80.95,15.28,27.87-6.47,51.54-24.03,66.64-49.42Zm-126.36.17c-15.43-10.37-26.19-26.45-30.3-45.3-4.11-18.89-1.07-38.23,8.57-54.48,9.58-16.09,24.52-27.2,42.04-31.26,17.52-4.04,35.58-.63,50.86,9.65,31.91,21.47,41.66,66.23,21.73,99.77-9.58,16.09-24.52,27.2-42.03,31.26-2.5.57-5,1-7.5,1.27-15.14,1.65-30.3-2.12-43.37-10.91Z"></path><path d="m2528.4,647.31c-6.52-29.83-23.62-55.36-48.18-71.88-21.12-14.21-45.3-20.3-69.92-17.62-4.11.45-8.24,1.15-12.29,2.1-28.33,6.56-52.38,24.4-67.73,50.22-15.31,25.73-20.15,56.31-13.64,86.11,6.51,29.82,23.63,55.34,48.2,71.87,24.67,16.61,53.86,22.11,82.2,15.52,28.33-6.56,52.38-24.39,67.73-50.22,15.31-25.74,20.15-56.32,13.62-86.11Zm-88.09,106.25c-2.9.68-5.88,1.19-8.86,1.51-17.74,1.93-35.2-2.48-50.47-12.76-17.95-12.08-30.46-30.77-35.24-52.65-4.78-21.92-1.24-44.38,9.96-63.24,11.17-18.75,28.58-31.69,49.04-36.44,20.48-4.72,41.54-.73,59.34,11.25,17.93,12.07,30.44,30.77,35.24,52.65,4.78,21.93,1.24,44.39-9.96,63.24-11.16,18.75-28.58,31.69-49.04,36.43h0Z"></path><path d="m1491.45,388.54h0c15.64,10.52,34.3,14.05,52.58,9.92,18.12-4.21,33.49-15.6,43.28-32.09,20.11-33.81,10.23-78.95-22.03-100.65-13.27-8.93-29.16-12.92-44.76-11.22-21.23,2.31-39.86,14.48-51.09,33.38-20.1,33.8-10.22,78.95,22.03,100.65Zm16.14-25.81c-18.74-12.61-24.45-38.87-12.75-58.55,5.65-9.5,14.49-16.02,24.87-18.35,10.15-2.27,20.6-.26,29.43,5.69,18.74,12.61,24.45,38.88,12.73,58.56-5.6,9.42-14.33,15.92-24.55,18.29-1.46.33-2.91.58-4.37.74-8.85.97-17.72-1.24-25.35-6.38Z"></path><path d="m2582.05,445.64c20.11-33.8,10.22-78.96-22.03-100.66-13.5-9.08-28.96-12.97-44.71-11.25-2.64.29-5.29.74-7.86,1.34-18.12,4.19-33.49,15.59-43.29,32.08-20.11,33.8-10.23,78.96,22.03,100.66,15.59,10.49,34.11,14.03,52.13,9.98,18.32-4.12,33.85-15.54,43.73-32.14Zm-79.72-3.64c-18.74-12.61-24.45-38.88-12.73-58.56h0c5.58-9.42,14.31-15.91,24.59-18.29,10.2-2.41,20.74-.39,29.69,5.64,18.73,12.61,24.45,38.88,12.75,58.55-5.67,9.5-14.51,16.01-24.9,18.34-1.38.31-2.77.54-4.15.69-8.8.96-17.63-1.24-25.25-6.37Z"></path></svg></svg>