<svg data-v-665648a0="" id="overlay" class="maskOverlay compass" style="fill: rgb(53, 53, 53); stroke: rgb(53, 53, 53); position: absolute; width: 85%; ">  <!--?xml version="1.0" encoding="utf-8"?-->
  <!-- Generator: Adobe Illustrator 27.4.1, SVG Export Plug-In . SVG Version: 6.00 Build 0)  -->
  <svg version="1.1" id="Outline"
    xmlns="http://www.w3.org/2000/svg"
    xmlns:xlink="http://www.w3.org/1999/xlink" x="0px" y="0px" viewBox="0 0 9000 9000" style="enable-background:new 0 0 9000 9000;" xml:space="preserve">
    <style type="text/css">
	.st0{stroke:#000000;stroke-width:6;stroke-miterlimit:10;}
	.st1{stroke:#000000;stroke-width:5.6849;stroke-miterlimit:10;}
    </style>
    <g>
      <path class="st0" d="M4560.1,142v140h-21.4l-77.2-94.8V282h-25.8V142h21.4l77.2,94.8V142H4560.1z"></path>
    </g>
    <g>
      <path class="st0" d="M135.6,4391l140,46.4v27.6L172,4499.6l103.6,35.2v27.8l-140,46.4v-27l106.4-34.8L135.6,4511v-24l107-35.4
		l-107-35.8V4391z"></path>
    </g>
    <g>
      <path class="st0" d="M8741.7,4556.8h-21.8v-105h140V4554h-21.8v-76.2h-36.4v67.6h-21.4v-67.6h-38.6V4556.8z"></path>
    </g>
    <g>
      <path class="st1" d="M4528.7,8744.3c9,3.1,16.2,7.1,21.5,12.2l-8.1,20.2c-5.1-4.5-11.5-8.2-18.9-11.1c-7.5-2.9-15-4.3-22.5-4.3
		c-9.3,0-16.3,1.7-20.9,5c-4.6,3.3-6.9,7.7-6.9,13.2c0,4,1.3,7.3,3.9,9.9c2.6,2.6,5.8,4.6,9.8,6.1c4,1.5,9.3,3.1,16.2,5
		c9.6,2.5,17.3,5.1,23.3,7.6c5.9,2.5,11,6.5,15.3,11.9c4.2,5.4,6.4,12.7,6.4,21.9c0,7.7-1.9,14.8-5.7,21.1
		c-3.8,6.3-9.5,11.4-17.1,15.1c-7.6,3.7-16.9,5.6-27.9,5.6c-7.7,0-15.2-1.1-22.6-3.2c-7.4-2.1-13.8-5.2-19.2-9.2l7.4-20.2
		c5.5,3.6,11.3,6.3,17.2,8.2c6,1.9,11.8,2.8,17.4,2.8c9.2,0,16.1-1.7,20.6-5.2c4.5-3.5,6.7-8.1,6.7-13.8c0-4-1.3-7.3-3.9-9.8
		c-2.6-2.5-5.8-4.5-9.8-6c-4-1.5-9.3-3.1-16.2-5c-9.3-2.4-17-4.9-23-7.5c-6-2.6-11.1-6.6-15.4-11.9c-4.2-5.3-6.4-12.5-6.4-21.6
		c0-7.7,1.9-14.7,5.7-21c3.8-6.3,9.5-11.3,17.1-15c7.7-3.7,17-5.6,28-5.6C4510.3,8739.7,4519.7,8741.3,4528.7,8744.3z"></path>
    </g>
    <g>
      <path d="M4495.7,8623c-279.1,0-558.1-28.1-829.2-83.6c-264.2-54.1-524-134.7-772.3-239.7c-243.8-103.1-478.9-230.7-698.9-379.3
		c-217.9-147.2-422.7-316.2-608.9-502.4c-186.2-186.2-355.2-391-502.4-608.9c-148.6-219.9-276.2-455.1-379.3-698.9
		c-105-248.3-185.7-508.2-239.7-772.3c-55.5-271-83.6-550-83.6-829.2s28.1-558.1,83.6-829.2c54.1-264.2,134.7-524,239.7-772.3
		c103.1-243.8,230.7-478.9,379.3-698.9c147.2-217.9,316.2-422.7,502.4-608.9c186.2-186.2,391-355.2,608.9-502.4
		c219.9-148.6,455.1-276.2,698.9-379.3c248.3-105,508.2-185.7,772.3-239.7c271-55.5,550-83.6,829.2-83.6
		c279.1,0,558.1,28.1,829.2,83.6c264.2,54.1,524,134.7,772.3,239.7c243.8,103.1,478.9,230.7,698.9,379.3
		c217.9,147.2,422.7,316.2,608.9,502.4c186.2,186.2,355.2,391,502.4,608.9c148.6,219.9,276.2,455.1,379.3,698.9
		c105,248.3,185.7,508.2,239.7,772.3c55.5,271,83.6,550,83.6,829.2s-28.1,558.1-83.6,829.2c-54.1,264.2-134.7,524-239.7,772.3
		c-103.1,243.8-230.7,478.9-379.3,698.9C7760.2,7027,7591.2,7231.8,7405,7418c-186.2,186.2-391,355.2-608.9,502.4
		c-220,148.6-455.1,276.2-698.9,379.3c-248.3,105-508.2,185.7-772.3,239.7C5053.8,8594.9,4774.9,8623,4495.7,8623z M4495.7,434.4
		c-276.4,0-552.7,27.9-821.1,82.8c-261.6,53.5-518.9,133.4-764.8,237.4c-241.4,102.1-474.3,228.5-692.1,375.6
		c-215.7,145.8-418.6,313.1-603,497.5s-351.8,387.3-497.5,603c-147.1,217.8-273.5,450.7-375.6,692.1
		c-104,245.9-183.9,503.2-237.4,764.8c-54.9,268.4-82.8,544.7-82.8,821.1c0,276.4,27.9,552.7,82.8,821.1
		c53.5,261.6,133.4,518.9,237.4,764.8c102.1,241.4,228.5,474.3,375.6,692.1c145.8,215.7,313.1,418.6,497.5,603
		c184.4,184.4,387.3,351.8,603,497.5c217.8,147.2,450.7,273.5,692.1,375.6c245.9,104,503.2,183.9,764.8,237.4
		c268.4,54.9,544.7,82.8,821.1,82.8s552.7-27.8,821.1-82.8c261.6-53.5,518.9-133.4,764.8-237.4c241.4-102.1,474.3-228.5,692.1-375.6
		c215.7-145.8,418.6-313.1,603-497.5c184.4-184.4,351.8-387.3,497.5-603c147.1-217.8,273.5-450.7,375.6-692.1
		c104-245.9,183.9-503.2,237.4-764.8c54.9-268.4,82.8-544.7,82.8-821.1c0-276.4-27.8-552.7-82.8-821.1
		c-53.5-261.6-133.4-518.9-237.4-764.8c-102.1-241.4-228.5-474.3-375.6-692.1c-145.8-215.7-313.1-418.6-497.5-603
		s-387.3-351.8-603-497.5c-217.8-147.1-450.7-273.5-692.1-375.6c-245.9-104-503.2-183.9-764.8-237.4
		C5048.5,462.3,4772.2,434.4,4495.7,434.4z"></path>
    </g>
    <g>
      <path d="M4495.7,8990.2c-304.1,0-607.9-30.6-903.2-91c-287.7-58.9-570.8-146.7-841.2-261.1c-265.5-112.3-521.7-251.3-761.2-413.2
		c-237.3-160.3-460.4-344.4-663.2-547.2c-202.8-202.8-386.9-425.9-547.2-663.2c-161.9-239.6-300.9-495.7-413.2-761.2
		c-114.4-270.5-202.3-553.5-261.1-841.2c-60.4-295.2-91-599.1-91-903.2c0-304.1,30.6-607.9,91-903.2
		c58.9-287.7,146.7-570.8,261.1-841.2c112.3-265.5,251.3-521.7,413.2-761.2c160.3-237.3,344.4-460.4,547.2-663.2
		c202.8-202.8,425.9-386.9,663.2-547.2c239.6-161.9,495.7-300.9,761.2-413.2c270.5-114.4,553.5-202.3,841.2-261.1
		c295.2-60.4,599.1-91,903.2-91s607.9,30.6,903.2,91c287.7,58.9,570.8,146.7,841.2,261.1c265.5,112.3,521.7,251.3,761.2,413.2
		c237.3,160.3,460.4,344.4,663.2,547.2c202.8,202.8,386.9,425.9,547.2,663.2c161.9,239.6,300.9,495.7,413.2,761.2
		c114.4,270.5,202.3,553.5,261.1,841.2c60.4,295.2,91,599.1,91,903.2c0,304.1-30.6,607.9-91,903.2
		c-58.9,287.7-146.7,570.8-261.1,841.2c-112.3,265.5-251.3,521.7-413.2,761.2c-160.3,237.3-344.4,460.4-547.2,663.2
		s-425.9,386.9-663.2,547.2c-239.6,161.9-495.7,300.9-761.2,413.2c-270.5,114.4-553.5,202.3-841.2,261.1
		C5103.7,8959.6,4799.8,8990.2,4495.7,8990.2z M4495.7,39.3c-303.3,0-606.3,30.6-900.8,90.8c-287,58.7-569.2,146.3-839,260.4
		c-264.8,112-520.3,250.7-759.2,412.1c-236.7,159.9-459.2,343.5-661.5,545.8c-202.3,202.3-385.9,424.8-545.8,661.5
		c-161.4,238.9-300.1,494.4-412.1,759.2c-114.1,269.7-201.7,552-260.4,839c-60.3,294.4-90.8,597.5-90.8,900.8
		c0,303.3,30.6,606.3,90.8,900.8c58.7,287,146.3,569.2,260.4,839c112,264.8,250.7,520.3,412.1,759.2
		c159.9,236.7,343.5,459.2,545.8,661.5c202.3,202.3,424.8,385.9,661.5,545.8c238.9,161.4,494.4,300.1,759.2,412.1
		c269.7,114.1,552,201.7,839,260.4c294.4,60.3,597.5,90.8,900.8,90.8s606.3-30.6,900.8-90.8c287-58.7,569.2-146.3,839-260.4
		c264.8-112,520.3-250.7,759.2-412.1c236.7-159.9,459.2-343.5,661.5-545.8c202.3-202.3,385.9-424.8,545.8-661.5
		c161.4-238.9,300.1-494.4,412.1-759.2c114.1-269.7,201.7-552,260.4-839c60.3-294.5,90.8-597.5,90.8-900.8
		c0-303.3-30.6-606.3-90.8-900.8c-58.7-287-146.3-569.2-260.4-839c-112-264.8-250.7-520.3-412.1-759.2
		c-159.9-236.7-343.5-459.2-545.8-661.5c-202.3-202.3-424.8-385.9-661.5-545.8c-238.9-161.4-494.4-300.1-759.2-412.1
		c-269.7-114.1-552-201.7-839-260.4C5102,69.8,4799,39.3,4495.7,39.3z"></path>
    </g>
    <g>
      <g>
        <line x1="4219.7" y1="121.9" x2="4232.7" y2="328.2"></line>
      </g>
      <g>

        <rect x="4222.2" y="121.7" transform="matrix(0.998 -6.278934e-02 6.278934e-02 0.998 -5.7928 265.8063)" width="8" height="206.7"></rect>
      </g>
    </g>
    <g>
      <g>
        <line x1="3944.8" y1="147.9" x2="3970.7" y2="353"></line>
      </g>
      <g>
        <rect x="3953.8" y="147.1" transform="matrix(0.9921 -0.1253 0.1253 0.9921 -0.1808 498.0167)" width="8" height="206.7"></rect>
      </g>
    </g>
    <g>
      <g>
        <line x1="3672.1" y1="191.1" x2="3710.8" y2="394.1"></line>
      </g>
      <g>
        <rect x="3687.5" y="189.3" transform="matrix(0.9823 -0.1874 0.1874 0.9823 10.554 696.9009)" width="8" height="206.7"></rect>
      </g>
    </g>
    <g>
      <g>
        <line x1="3402.6" y1="251.3" x2="3454" y2="451.5"></line>
      </g>
      <g>
        <rect x="3424.3" y="248.1" transform="matrix(0.9686 -0.2487 0.2487 0.9686 20.3055 863.6271)" width="8" height="206.7"></rect>
      </g>
    </g>
    <g>
      <g>
        <line x1="3137.5" y1="328.4" x2="3201.3" y2="525"></line>
      </g>
      <g>
        <rect x="3165.4" y="323.3" transform="matrix(0.9511 -0.309 0.309 0.9511 23.2719 1000.2789)" width="8" height="206.7"></rect>
      </g>
    </g>
    <g>
      <g>
        <line x1="2877.6" y1="421.9" x2="2953.7" y2="614.1"></line>
      </g>
      <g>
        <rect x="2911.7" y="414.7" transform="matrix(0.9298 -0.3681 0.3681 0.9298 14.0583 1109.7156)" width="8" height="206.7"></rect>
      </g>
    </g>
    <g>
      <g>
        <line x1="2624.2" y1="531.6" x2="2712.2" y2="718.6"></line>
      </g>
      <g>
        <rect x="2664.2" y="521.7" transform="matrix(0.9048 -0.4258 0.4258 0.9048 -12.2098 1195.5688)" width="8" height="206.7"></rect>
      </g>
    </g>
    <g>
      <g>
        <line x1="2378.2" y1="656.9" x2="2477.8" y2="838.1"></line>
      </g>
      <g>
        <rect x="2424" y="644.2" transform="matrix(0.8763 -0.4818 0.4818 0.8763 -59.7911 1262.1487)" width="8" height="206.7"></rect>
      </g>
    </g>
    <g>
      <rect x="2175.9" y="781.4" transform="matrix(0.8443 -0.5358 0.5358 0.8443 -132.2418 1314.3577)" width="40" height="206.7"></rect>
    </g>
    <g>
      <g>
        <line x1="1912.1" y1="952.7" x2="2033.6" y2="1119.9"></line>
      </g>
      <g>
        <rect x="1968.9" y="933" transform="matrix(0.809 -0.5878 0.5878 0.809 -232.3515 1357.549)" width="8" height="206.7"></rect>
      </g>
    </g>
    <g>
      <g>
        <line x1="1693.9" y1="1122" x2="1825.7" y2="1281.2"></line>
      </g>
      <g>
        <rect x="1755.8" y="1098.2" transform="matrix(0.7705 -0.6374 0.6374 0.7705 -362.0665 1397.5034)" width="8" height="206.7"></rect>
      </g>
    </g>
    <g>
      <g>
        <line x1="1486.8" y1="1304.6" x2="1628.3" y2="1455.2"></line>
      </g>
      <g>
        <rect x="1553.6" y="1276.6" transform="matrix(0.729 -0.6845 0.6845 0.729 -522.4622 1440.2213)" width="8" height="206.7"></rect>
      </g>
    </g>
    <g>
      <g>
        <line x1="1291.6" y1="1499.8" x2="1442.2" y2="1641.3"></line>
      </g>
      <g>
        <rect x="1362.9" y="1467.2" transform="matrix(0.6845 -0.729 0.729 0.6845 -713.7036 1491.869)" width="8" height="206.7"></rect>
      </g>
    </g>
    <g>
      <g>
        <line x1="1109" y1="1707" x2="1268.2" y2="1838.7"></line>
      </g>
      <g>
        <rect x="1184.6" y="1669.5" transform="matrix(0.6374 -0.7705 0.7705 0.6374 -935.0355 1558.6031)" width="8" height="206.7"></rect>
      </g>
    </g>
    <g>
      <g>
        <line x1="939.7" y1="1925.1" x2="1106.9" y2="2046.6"></line>
      </g>
      <g>
        <rect x="1019.3" y="1882.5" transform="matrix(0.5878 -0.809 0.809 0.5878 -1184.7875 1646.4984)" width="8" height="206.7"></rect>
      </g>
    </g>
    <g>
      <rect x="851.8" y="2105.5" transform="matrix(0.5358 -0.8443 0.8443 0.5358 -1460.3851 1761.3572)" width="40" height="206.7"></rect>
    </g>
    <g>
      <g>
        <line x1="643.9" y1="2391.2" x2="825.1" y2="2490.8"></line>
      </g>
      <g>
        <rect x="730.5" y="2337.6" transform="matrix(0.4818 -0.8763 0.8763 0.4818 -1758.4001 1908.6826)" width="8" height="206.7"></rect>
      </g>
    </g>
    <g>
      <g>
        <line x1="518.6" y1="2637.2" x2="705.6" y2="2725.2"></line>
      </g>
      <g>
        <rect x="608.1" y="2577.9" transform="matrix(0.4258 -0.9048 0.9048 0.4258 -2074.5808 2093.4529)" width="8" height="206.7"></rect>
      </g>
    </g>
    <g>
      <g>
        <line x1="408.9" y1="2890.7" x2="601.1" y2="2966.7"></line>
      </g>
      <g>
        <rect x="501" y="2825.4" transform="matrix(0.3681 -0.9298 0.9298 0.3681 -2403.9385 2320.1196)" width="8" height="206.7"></rect>
      </g>
    </g>
    <g>
      <g>
        <line x1="315.4" y1="3150.5" x2="512" y2="3214.3"></line>
      </g>
      <g>
        <rect x="409.7" y="3079" transform="matrix(0.309 -0.9511 0.9511 0.309 -2740.8047 2592.4067)" width="8" height="206.7"></rect>
      </g>
    </g>
    <g>
      <g>
        <line x1="238.3" y1="3415.6" x2="438.5" y2="3467"></line>
      </g>
      <g>
        <rect x="334.4" y="3338" transform="matrix(0.2487 -0.9686 0.9686 0.2487 -3078.9426 2913.3186)" width="8" height="206.7"></rect>
      </g>
    </g>
    <g>
      <g>
        <line x1="178.1" y1="3685.1" x2="381.1" y2="3723.8"></line>
      </g>
      <g>
        <rect x="275.6" y="3601.1" transform="matrix(0.1874 -0.9823 0.9823 0.1874 -3411.6345 3284.988)" width="8" height="206.7"></rect>
      </g>
    </g>
    <g>
      <g>
        <line x1="134.9" y1="3957.8" x2="340" y2="3983.7"></line>
      </g>
      <g>
        <rect x="233.4" y="3867.4" transform="matrix(0.1253 -0.9921 0.9921 0.1253 -3731.804 3708.6804)" width="8" height="206.7"></rect>
      </g>
    </g>
    <g>
      <g>
        <line x1="108.9" y1="4232.7" x2="315.2" y2="4245.7"></line>
      </g>
      <g>

        <rect x="208.1" y="4135.9" transform="matrix(6.278934e-02 -0.998 0.998 6.278934e-02 -4032.124 4184.7036)" width="8" height="206.7"></rect>
      </g>
    </g>
    <g>
      <g>
        <line x1="108.9" y1="4784.7" x2="315.2" y2="4771.8"></line>
      </g>
      <g>

        <rect x="108.7" y="4774.2" transform="matrix(0.998 -6.280386e-02 6.280386e-02 0.998 -299.6738 22.7512)" width="206.7" height="8"></rect>
      </g>
    </g>
    <g>
      <g>
        <line x1="134.9" y1="5059.6" x2="340" y2="5033.7"></line>
      </g>
      <g>
        <rect x="134.1" y="5042.7" transform="matrix(0.9921 -0.1253 0.1253 0.9921 -630.4619 69.5216)" width="206.7" height="8"></rect>
      </g>
    </g>
    <g>
      <g>
        <line x1="178.1" y1="5332.4" x2="381.1" y2="5293.6"></line>
      </g>
      <g>
        <rect x="176.3" y="5309" transform="matrix(0.9823 -0.1874 0.1874 0.9823 -990.6949 146.5254)" width="206.7" height="8"></rect>
      </g>
    </g>
    <g>
      <g>
        <line x1="238.3" y1="5601.9" x2="438.5" y2="5550.5"></line>
      </g>
      <g>
        <rect x="235.1" y="5572.2" transform="matrix(0.9686 -0.2487 0.2487 0.9686 -1376.192 259.3811)" width="206.7" height="8"></rect>
      </g>
    </g>
    <g>
      <g>
        <line x1="315.4" y1="5867" x2="512" y2="5803.2"></line>
      </g>
      <g>
        <rect x="310.3" y="5831.1" transform="matrix(0.9511 -0.309 0.309 0.9511 -1782.7225 413.3496)" width="206.7" height="8"></rect>
      </g>
    </g>
    <g>
      <g>
        <line x1="408.9" y1="6126.8" x2="601.1" y2="6050.7"></line>
      </g>
      <g>
        <rect x="401.7" y="6084.8" transform="matrix(0.9298 -0.3682 0.3682 0.9298 -2206.3494 613.6686)" width="206.7" height="8"></rect>
      </g>
    </g>
    <g>
      <g>
        <line x1="518.6" y1="6380.3" x2="705.6" y2="6292.2"></line>
      </g>
      <g>
        <rect x="508.7" y="6332.2" transform="matrix(0.9048 -0.4258 0.4258 0.9048 -2639.6963 863.7184)" width="206.7" height="8"></rect>
      </g>
    </g>
    <g>
      <g>
        <line x1="643.9" y1="6626.3" x2="825.1" y2="6526.7"></line>
      </g>
      <g>
        <rect x="631.2" y="6572.5" transform="matrix(0.8763 -0.4818 0.4818 0.8763 -3077.8977 1167.6699)" width="206.7" height="8"></rect>
      </g>
    </g>
    <g>
      <rect x="768.4" y="6788.6" transform="matrix(0.8443 -0.5358 0.5358 0.8443 -3512.4419 1526.9591)" width="206.7" height="40"></rect>
    </g>
    <g>
      <g>
        <line x1="939.7" y1="7092.3" x2="1106.9" y2="6970.9"></line>
      </g>
      <g>
        <rect x="920" y="7027.6" transform="matrix(0.809 -0.5877 0.5877 0.809 -3937.3718 1944.1523)" width="206.7" height="8"></rect>
      </g>
    </g>
    <g>
      <g>
        <line x1="1109" y1="7310.5" x2="1268.2" y2="7178.8"></line>
      </g>
      <g>
        <rect x="1085.2" y="7240.7" transform="matrix(0.7705 -0.6374 0.6374 0.7705 -4345.272 2420.3201)" width="206.7" height="8"></rect>
      </g>
    </g>
    <g>
      <g>
        <line x1="1291.6" y1="7517.7" x2="1442.2" y2="7376.2"></line>
      </g>
      <g>
        <rect x="1263.5" y="7442.9" transform="matrix(0.729 -0.6845 0.6845 0.729 -4727.2603 2954.011)" width="206.7" height="8"></rect>
      </g>
    </g>
    <g>
      <g>
        <line x1="1486.8" y1="7712.9" x2="1628.3" y2="7562.2"></line>
      </g>
      <g>
        <rect x="1454.2" y="7633.6" transform="matrix(0.6845 -0.729 0.729 0.6845 -5076.2485 3544.7593)" width="206.7" height="8"></rect>
      </g>
    </g>
    <g>
      <g>
        <line x1="1693.9" y1="7895.5" x2="1825.7" y2="7736.3"></line>
      </g>
      <g>
        <rect x="1656.5" y="7811.9" transform="matrix(0.6374 -0.7705 0.7705 0.6374 -5384.0938 4189.6484)" width="206.7" height="8"></rect>
      </g>
    </g>
    <g>
      <g>
        <line x1="1912.1" y1="8064.8" x2="2033.6" y2="7897.5"></line>
      </g>
      <g>
        <rect x="1869.5" y="7977.2" transform="matrix(0.5879 -0.8089 0.8089 0.5879 -5643.2764 4885.1396)" width="206.7" height="8"></rect>
      </g>
    </g>
    <g>
      <rect x="2092.5" y="8112.7" transform="matrix(0.5358 -0.8443 0.8443 0.5358 -5847.3911 5628.9893)" width="206.7" height="40"></rect>
    </g>
    <g>
      <g>
        <line x1="2378.2" y1="8360.5" x2="2477.8" y2="8179.4"></line>
      </g>
      <g>
        <rect x="2324.6" y="8266" transform="matrix(0.4817 -0.8763 0.8763 0.4817 -5988.8799 6414.1611)" width="206.7" height="8"></rect>
      </g>
    </g>
    <g>
      <g>
        <line x1="2624.2" y1="8485.9" x2="2712.2" y2="8298.9"></line>
      </g>
      <g>
        <rect x="2564.9" y="8388.4" transform="matrix(0.4258 -0.9048 0.9048 0.4258 -6061.4854 7233.2007)" width="206.7" height="8"></rect>
      </g>
    </g>
    <g>
      <g>
        <line x1="2877.6" y1="8595.6" x2="2953.7" y2="8403.4"></line>
      </g>
      <g>
        <rect x="2812.3" y="8495.5" transform="matrix(0.3681 -0.9298 0.9298 0.3681 -6060.248 8081.3335)" width="206.7" height="8"></rect>
      </g>
    </g>
    <g>
      <g>
        <line x1="3137.5" y1="8689.1" x2="3201.3" y2="8492.5"></line>
      </g>
      <g>
        <rect x="3066" y="8586.8" transform="matrix(0.3091 -0.951 0.951 0.3091 -5980.3765 8949.792)" width="206.7" height="8"></rect>
      </g>
    </g>
    <g>
      <g>
        <line x1="3402.6" y1="8766.1" x2="3454" y2="8565.9"></line>
      </g>
      <g>
        <rect x="3325" y="8662" transform="matrix(0.2488 -0.9686 0.9686 0.2488 -5818.1338 9830.8037)" width="206.7" height="8"></rect>
      </g>
    </g>
    <g>
      <g>
        <line x1="3672.1" y1="8826.4" x2="3710.8" y2="8623.3"></line>
      </g>
      <g>
        <rect x="3588.1" y="8720.9" transform="matrix(0.1875 -0.9823 0.9823 0.1875 -5570.7896 10715.0098)" width="206.7" height="8"></rect>
      </g>
    </g>
    <g>
      <g>
        <line x1="3944.8" y1="8869.6" x2="3970.7" y2="8664.5"></line>
      </g>
      <g>
        <rect x="3854.4" y="8763" transform="matrix(0.1253 -0.9921 0.9921 0.1253 -5235.9321 11595.5762)" width="206.7" height="8"></rect>
      </g>
    </g>
    <g>
      <g>
        <line x1="4219.7" y1="8895.6" x2="4232.7" y2="8689.3"></line>
      </g>
      <g>

        <rect x="4122.9" y="8788.4" transform="matrix(6.274306e-02 -0.998 0.998 6.274306e-02 -4814.0288 12458.6572)" width="206.7" height="8"></rect>
      </g>
    </g>
    <g>
      <g>
        <line x1="4771.7" y1="8895.6" x2="4758.8" y2="8689.3"></line>
      </g>
      <g>

        <rect x="4761.2" y="8689.1" transform="matrix(0.998 -6.279390e-02 6.279390e-02 0.998 -542.7059 316.5798)" width="8" height="206.7"></rect>
      </g>
    </g>
    <g>
      <g>
        <line x1="5046.6" y1="8869.6" x2="5020.7" y2="8664.5"></line>
      </g>
      <g>
        <rect x="5029.7" y="8663.7" transform="matrix(0.9921 -0.1253 0.1253 0.9921 -1059.1083 700.0178)" width="8" height="206.7"></rect>
      </g>
    </g>
    <g>
      <g>
        <line x1="5319.4" y1="8826.4" x2="5280.6" y2="8623.3"></line>
      </g>
      <g>
        <rect x="5296" y="8621.5" transform="matrix(0.9823 -0.1874 0.1874 0.9823 -1540.993 1147.6584)" width="8" height="206.7"></rect>
      </g>
    </g>
    <g>
      <g>
        <line x1="5588.9" y1="8766.1" x2="5537.4" y2="8565.9"></line>
      </g>
      <g>
        <rect x="5559.1" y="8562.7" transform="matrix(0.9686 -0.2487 0.2487 0.9686 -1980.384 1655.7628)" width="8" height="206.7"></rect>
      </g>
    </g>
    <g>
      <g>
        <line x1="5854" y1="8689.1" x2="5790.1" y2="8492.5"></line>
      </g>
      <g>
        <rect x="5818.1" y="8487.5" transform="matrix(0.9511 -0.309 0.309 0.9511 -2369.7356 2219.5623)" width="8" height="206.7"></rect>
      </g>
    </g>
    <g>
      <g>
        <line x1="6113.8" y1="8595.6" x2="6037.7" y2="8403.4"></line>
      </g>
      <g>
        <rect x="6071.8" y="8396.1" transform="matrix(0.9298 -0.3681 0.3681 0.9298 -2702.2021 2833.5049)" width="8" height="206.7"></rect>
      </g>
    </g>
    <g>
      <g>
        <line x1="6367.2" y1="8485.9" x2="6279.2" y2="8298.9"></line>
      </g>
      <g>
        <rect x="6319.2" y="8289" transform="matrix(0.9048 -0.4258 0.4258 0.9048 -2971.502 3491.0293)" width="8" height="206.7"></rect>
      </g>
    </g>
    <g>
      <rect x="6543.5" y="8166.6" transform="matrix(0.8763 -0.4818 0.4818 0.8763 -3172.2231 4184.9072)" width="40" height="206.7"></rect>
    </g>
    <g>
      <g>
        <line x1="6851" y1="8220" x2="6740.2" y2="8045.5"></line>
      </g>
      <g>
        <rect x="6791.6" y="8029.4" transform="matrix(0.8443 -0.5358 0.5358 0.8443 -3299.8535 4907.3145)" width="8" height="206.7"></rect>
      </g>
    </g>
    <g>
      <g>
        <line x1="7079.3" y1="8064.8" x2="6957.8" y2="7897.5"></line>
      </g>
      <g>
        <rect x="7014.6" y="7877.8" transform="matrix(0.809 -0.5878 0.5878 0.809 -3350.7759 5649.6943)" width="8" height="206.7"></rect>
      </g>
    </g>
    <g>
      <g>
        <line x1="7297.5" y1="7895.5" x2="7165.8" y2="7736.3"></line>
      </g>
      <g>
        <rect x="7227.7" y="7712.5" transform="matrix(0.7705 -0.6374 0.6374 0.7705 -3322.4697 6403.2617)" width="8" height="206.7"></rect>
      </g>
    </g>
    <g>
      <g>
        <line x1="7504.7" y1="7712.9" x2="7363.2" y2="7562.2"></line>
      </g>
      <g>
        <rect x="7429.9" y="7534.2" transform="matrix(0.729 -0.6845 0.6845 0.729 -3213.4609 7158.8945)" width="8" height="206.7"></rect>
      </g>
    </g>
    <g>
      <g>
        <line x1="7699.9" y1="7517.7" x2="7549.2" y2="7376.2"></line>
      </g>
      <g>
        <rect x="7620.6" y="7343.6" transform="matrix(0.6845 -0.729 0.729 0.6845 -3023.3752 7907.2163)" width="8" height="206.7"></rect>
      </g>
    </g>
    <g>
      <g>
        <line x1="7882.5" y1="7310.5" x2="7723.3" y2="7178.8"></line>
      </g>
      <g>
        <rect x="7798.9" y="7141.3" transform="matrix(0.6374 -0.7705 0.7705 0.6374 -2752.9624 8638.9805)" width="8" height="206.7"></rect>
      </g>
    </g>
    <g>
      <g>
        <line x1="8051.8" y1="7092.3" x2="7884.5" y2="6970.9"></line>
      </g>
      <g>
        <rect x="7964.2" y="6928.3" transform="matrix(0.5878 -0.809 0.809 0.5878 -2404.0928 9344.9111)" width="8" height="206.7"></rect>
      </g>
    </g>
    <g>
      <rect x="8099.7" y="6705.2" transform="matrix(0.5358 -0.8443 0.8443 0.5358 -1979.7305 10016.0576)" width="40" height="206.7"></rect>
    </g>
    <g>
      <g>
        <line x1="8347.5" y1="6626.3" x2="8166.4" y2="6526.7"></line>
      </g>
      <g>
        <rect x="8253" y="6473.1" transform="matrix(0.4818 -0.8763 0.8763 0.4818 -1483.8865 10643.8818)" width="8" height="206.7"></rect>
      </g>
    </g>
    <g>
      <g>
        <line x1="8472.9" y1="6380.3" x2="8285.9" y2="6292.2"></line>
      </g>
      <g>
        <rect x="8375.4" y="6232.9" transform="matrix(0.4258 -0.9048 0.9048 0.4258 -921.602 11220.2822)" width="8" height="206.7"></rect>
      </g>
    </g>
    <g>
      <g>
        <line x1="8582.6" y1="6126.8" x2="8390.4" y2="6050.7"></line>
      </g>
      <g>
        <rect x="8482.5" y="5985.4" transform="matrix(0.3681 -0.9298 0.9298 0.3681 -298.8074 11737.8926)" width="8" height="206.7"></rect>
      </g>
    </g>
    <g>
      <g>
        <line x1="8676.1" y1="5867" x2="8479.5" y2="5803.2"></line>
      </g>
      <g>
        <rect x="8573.8" y="5731.7" transform="matrix(0.309 -0.9511 0.9511 0.309 377.6104 12189.9141)" width="8" height="206.7"></rect>
      </g>
    </g>
    <g>
      <g>
        <line x1="8753.1" y1="5601.9" x2="8552.9" y2="5550.5"></line>
      </g>
      <g>
        <rect x="8649" y="5472.8" transform="matrix(0.2487 -0.9686 0.9686 0.2487 1100.1614 12570.627)" width="8" height="206.7"></rect>
      </g>
    </g>
    <g>
      <g>
        <line x1="8813.4" y1="5332.4" x2="8610.3" y2="5293.6"></line>
      </g>
      <g>
        <rect x="8707.9" y="5209.7" transform="matrix(0.1874 -0.9823 0.9823 0.1874 1860.5182 12874.999)" width="8" height="206.7"></rect>
      </g>
    </g>
    <g>
      <g>
        <line x1="8856.6" y1="5059.6" x2="8651.5" y2="5033.7"></line>
      </g>
      <g>
        <rect x="8750" y="4943.3" transform="matrix(0.1253 -0.9921 0.9921 0.1253 2649.9678 13099.1807)" width="8" height="206.7"></rect>
      </g>
    </g>
    <g>
      <g>
        <line x1="8882.6" y1="4784.7" x2="8676.3" y2="4771.8"></line>
      </g>
      <g>

        <rect x="8775.4" y="4674.9" transform="matrix(6.278948e-02 -0.998 0.998 6.278948e-02 3459.335 13240.3115)" width="8" height="206.7"></rect>
      </g>
    </g>
    <g>
      <g>
        <line x1="8882.6" y1="4232.7" x2="8676.3" y2="4245.7"></line>
      </g>
      <g>

        <rect x="8676.1" y="4235.2" transform="matrix(0.998 -6.274306e-02 6.274306e-02 0.998 -248.6848 559.1996)" width="206.7" height="8"></rect>
      </g>
    </g>
    <g>
      <g>
        <line x1="8856.6" y1="3957.8" x2="8651.5" y2="3983.7"></line>
      </g>
      <g>
        <rect x="8650.7" y="3966.8" transform="matrix(0.9921 -0.1253 0.1253 0.9921 -428.4107 1127.7274)" width="206.7" height="8"></rect>
      </g>
    </g>
    <g>
      <g>
        <line x1="8813.4" y1="3685.1" x2="8610.3" y2="3723.8"></line>
      </g>
      <g>
        <rect x="8608.5" y="3700.5" transform="matrix(0.9823 -0.1875 0.1875 0.9823 -540.0678 1699.1119)" width="206.7" height="8"></rect>
      </g>
    </g>
    <g>
      <g>
        <line x1="8753.1" y1="3415.6" x2="8552.9" y2="3467"></line>
      </g>
      <g>
        <rect x="8549.7" y="3437.3" transform="matrix(0.9686 -0.2488 0.2488 0.9686 -584.0623 2260.7349)" width="206.7" height="8"></rect>
      </g>
    </g>
    <g>
      <g>
        <line x1="8676.1" y1="3150.5" x2="8479.5" y2="3214.3"></line>
      </g>
      <g>
        <rect x="8474.5" y="3178.4" transform="matrix(0.951 -0.3091 0.3091 0.951 -563.6114 2807.0303)" width="206.7" height="8"></rect>
      </g>
    </g>
    <g>
      <g>
        <line x1="8582.6" y1="2890.7" x2="8390.4" y2="2966.7"></line>
      </g>
      <g>
        <rect x="8383.1" y="2924.7" transform="matrix(0.9298 -0.3681 0.3681 0.9298 -482.1668 3329.9619)" width="206.7" height="8"></rect>
      </g>
    </g>
    <g>
      <g>
        <line x1="8472.9" y1="2637.2" x2="8285.9" y2="2725.2"></line>
      </g>
      <g>
        <rect x="8276" y="2677.2" transform="matrix(0.9048 -0.4258 0.4258 0.9048 -344.1025 3823.1204)" width="206.7" height="8"></rect>
      </g>
    </g>
    <g>
      <g>
        <line x1="8347.5" y1="2391.2" x2="8166.4" y2="2490.8"></line>
      </g>
      <g>
        <rect x="8153.6" y="2437" transform="matrix(0.8763 -0.4817 0.4817 0.8763 -154.7582 4279.1401)" width="206.7" height="8"></rect>
      </g>
    </g>
    <g>
      <rect x="8016.4" y="2188.9" transform="matrix(0.8443 -0.5358 0.5358 0.8443 80.4424 4694.6777)" width="206.7" height="40"></rect>
    </g>
    <g>
      <g>
        <line x1="8051.8" y1="1925.1" x2="7884.5" y2="2046.6"></line>
      </g>
      <g>
        <rect x="7864.8" y="1981.9" transform="matrix(0.8089 -0.5879 0.5879 0.8089 354.8734 5063.7373)" width="206.7" height="8"></rect>
      </g>
    </g>
    <g>
      <g>
        <line x1="7882.5" y1="1707" x2="7723.3" y2="1838.7"></line>
      </g>
      <g>
        <rect x="7699.5" y="1768.8" transform="matrix(0.7705 -0.6374 0.6374 0.7705 660.7047 5380.7642)" width="206.7" height="8"></rect>
      </g>
    </g>
    <g>
      <g>
        <line x1="7699.9" y1="1499.8" x2="7549.2" y2="1641.3"></line>
      </g>
      <g>
        <rect x="7521.2" y="1566.6" transform="matrix(0.729 -0.6845 0.6845 0.729 991.3405 5645.0059)" width="206.7" height="8"></rect>
      </g>
    </g>
    <g>
      <g>
        <line x1="7504.7" y1="1304.6" x2="7363.2" y2="1455.2"></line>
      </g>
      <g>
        <rect x="7330.6" y="1375.9" transform="matrix(0.6845 -0.729 0.729 0.6845 1339.173 5854.4268)" width="206.7" height="8"></rect>
      </g>
    </g>
    <g>
      <g>
        <line x1="7297.5" y1="1122" x2="7165.8" y2="1281.2"></line>
      </g>
      <g>
        <rect x="7128.3" y="1197.6" transform="matrix(0.6374 -0.7705 0.7705 0.6374 1696.0649 6007.6162)" width="206.7" height="8"></rect>
      </g>
    </g>
    <g>
      <g>
        <line x1="7079.3" y1="952.7" x2="6957.8" y2="1119.9"></line>
      </g>
      <g>
        <rect x="6915.2" y="1032.3" transform="matrix(0.5877 -0.809 0.809 0.5877 2055.0247 6105.6089)" width="206.7" height="8"></rect>
      </g>
    </g>
    <g>
      <g>
        <line x1="6851" y1="797.5" x2="6740.2" y2="972"></line>
      </g>
      <g>
        <rect x="6692.2" y="880.8" transform="matrix(0.5359 -0.8443 0.8443 0.5359 2407.0366 6148.1709)" width="206.7" height="8"></rect>
      </g>
    </g>
    <g>
      <rect x="6460.1" y="727.5" transform="matrix(0.4818 -0.8763 0.8763 0.4818 2746.4453 6139.0176)" width="206.7" height="40"></rect>
    </g>
    <g>
      <g>
        <line x1="6367.2" y1="531.6" x2="6279.2" y2="718.6"></line>
      </g>
      <g>
        <rect x="6219.9" y="621.1" transform="matrix(0.4258 -0.9048 0.9048 0.4258 3065.2256 6080.3198)" width="206.7" height="8"></rect>
      </g>
    </g>
    <g>
      <g>
        <line x1="6113.8" y1="421.9" x2="6037.7" y2="614.1"></line>
      </g>
      <g>
        <rect x="5972.4" y="514" transform="matrix(0.3682 -0.9298 0.9298 0.3682 3357.1235 5976.2461)" width="206.7" height="8"></rect>
      </g>
    </g>
    <g>
      <g>
        <line x1="5854" y1="328.4" x2="5790.1" y2="525"></line>
      </g>
      <g>
        <rect x="5718.7" y="422.7" transform="matrix(0.3089 -0.9511 0.9511 0.3089 3617.6555 5832.1509)" width="206.7" height="8"></rect>
      </g>
    </g>
    <g>
      <g>
        <line x1="5588.9" y1="251.3" x2="5537.4" y2="451.5"></line>
      </g>
      <g>
        <rect x="5459.8" y="347.4" transform="matrix(0.2487 -0.9686 0.9686 0.2487 3839.3115 5652.439)" width="206.7" height="8"></rect>
      </g>
    </g>
    <g>
      <g>
        <line x1="5319.4" y1="191.1" x2="5280.6" y2="394.1"></line>
      </g>
      <g>
        <rect x="5196.7" y="288.6" transform="matrix(0.1874 -0.9823 0.9823 0.1874 4019.3511 5443.8979)" width="206.7" height="8"></rect>
      </g>
    </g>
    <g>
      <g>
        <line x1="5046.6" y1="147.9" x2="5020.7" y2="353"></line>
      </g>
      <g>
        <rect x="4930.3" y="246.4" transform="matrix(0.1253 -0.9921 0.9921 0.1253 4154.5093 5213.0815)" width="206.7" height="8"></rect>
      </g>
    </g>
    <g>
      <g>
        <line x1="4771.7" y1="121.9" x2="4758.8" y2="328.2"></line>
      </g>
      <g>

        <rect x="4661.9" y="221.1" transform="matrix(6.280386e-02 -0.998 0.998 6.280386e-02 4241.3413 4966.7705)" width="206.7" height="8"></rect>
      </g>
    </g>
  </svg>
</svg>
