<svg data-v-665648a0="" id="overlay" class="maskOverlay focus" style="fill: rgb(53, 53, 53); stroke: rgb(53, 53, 53); position: absolute; width: 85%; ">  <!--?xml version="1.0" encoding="UTF-8"?-->
  <svg id="Layer_1"
    xmlns="http://www.w3.org/2000/svg" viewBox="0 0 9000 9000">
    <defs>
      <style>.cls-1{231f20;}</style>
    </defs>
    <path class="cls-1" d="m4500,460.55c-2230.94,0-4039.45,1808.51-4039.45,4039.45s1808.51,4039.45,4039.45,4039.45,4039.45-1808.51,4039.45-4039.45S6730.94,460.55,4500,460.55Zm0,8037.39c-2208.06,0-3998.12-1789.97-3998.12-3998.03.09-2208.06,1790.06-3997.94,3998.12-3997.94s3998.12,1789.97,3998.12,3998.03-1790.06,3998.03-3998.12,3998.03v-.09Z"></path>
    <path class="cls-1" d="m4500,335.68c-2299.91,0-4164.32,1864.41-4164.32,4164.32s1864.41,4164.32,4164.32,4164.32,4164.32-1864.41,4164.32-4164.32S6799.91,335.68,4500,335.68Zm0,8280.74c-2273.49,0-4116.6-1843.02-4116.6-4116.51.09-2273.49,1843.11-4116.42,4116.6-4116.42s4116.6,1843.02,4116.6,4116.51-1843.11,4116.51-4116.6,4116.51v-.09Z"></path>
  </svg>
</svg>
