<svg data-v-665648a0="" id="overlay" class="maskOverlay orbital" style="fill: rgb(53, 53, 53); stroke: rgb(53, 53, 53); position: absolute; width: 85%; ">  <!--?xml version="1.0" encoding="UTF-8"?-->
  <svg id="Layer_1"
    xmlns="http://www.w3.org/2000/svg" viewBox="0 0 9000 9000">
    <path d="m4478,222.4c-2246,0-4066.5,1820.6-4066.5,4066.5s1820.5,4066.6,4066.5,4066.6,4066.5-1820.6,4066.5-4066.5S6724,222.4,4478,222.4Zm0,8090.7c-2222.5,0-4023.9-1801.7-4023.9-4023.9S2255.5,265.1,4478,265.1s4023.9,1801.7,4023.9,4023.9-1801.7,4023.8-4023.9,4023.8v.3Z"></path>
    <path d="m4261.5,612.8c-2246,0-4066.5,1820.8-4066.5,4066.5s1820.6,4066.5,4066.5,4066.5,4066.5-1820.6,4066.5-4066.5S6507.4,612.8,4261.5,612.8Zm0,8090.7c-2222.5,0-4023.9-1801.7-4023.9-4023.9S2039.3,655.5,4261.5,655.5s4023.9,1801.7,4023.9,4023.9-1801.8,4023.8-4023.9,4023.8v.3Z"></path>
    <path d="m4933.5,570.2c-2246,0-4066.5,1820.6-4066.5,4066.5s1820.6,4066.5,4066.5,4066.5,4066.5-1820.5,4066.5-4066.5S7179.4,570.2,4933.5,570.2Zm0,8090.7c-2222.5,0-4023.9-1801.7-4023.9-4023.9S2711,612.8,4933.5,612.8s4023.9,1801.7,4023.9,4023.9-1801.7,4023.9-4023.9,4023.9v.3Z"></path>
    <path d="m4478,612.8c-2246,0-4066.5,1820.8-4066.5,4066.5s1820.5,4066.6,4066.5,4066.6,4066.5-1820.6,4066.5-4066.5S6724,612.8,4478,612.8Zm0,8090.7c-2222.5,0-4023.9-1801.7-4023.9-4023.9S2255.5,655.5,4478,655.5s4023.9,1801.7,4023.9,4023.9-1801.7,4023.8-4023.9,4023.8v.3Z"></path>
    <path d="m6971.9,7593c179.3-24.3,199-44.3,223.4-223.4,24.3,179.3,44.3,199,223.4,223.4-179.3,24.3-199,44.3-223.4,223.4-24.3-179.4-44.3-199.1-223.4-223.4Z"></path>
    <path d="m71.1,3841.9c179.3-24.3,199-44.3,223.4-223.4,24.3,179.3,44.3,199,223.4,223.4-179.3,24.3-199,44.3-223.4,223.4-24.4-179.4-44.4-199-223.4-223.4Z"></path>
    <path d="m7054,1310.5c179.3-24.3,199-44.3,223.4-223.4,24.3,179.3,44.3,199,223.4,223.4-179.3,24.3-199,44.3-223.4,223.4-24.4-179.3-44.4-199-223.4-223.4Z"></path>
    <path d="m2566.1,408.6c25.1-3.6,27.9-6.3,31.4-31.4,3.6,25.2,6.3,27.9,31.4,31.4-25.2,3.6-27.9,6.3-31.4,31.4-3.5-25.1-6.2-27.9-31.4-31.4Z"></path>
    <path d="m1611.4,440c25.2-3.6,27.9-6.3,31.4-31.4,3.6,25.2,6.3,27.9,31.4,31.4-25.2,3.6-27.9,6.3-31.4,31.4-3.5-25.1-6.3-27.8-31.4-31.4Z"></path>
    <path d="m505.2,2225.3c25.2-3.6,27.9-6.3,31.4-31.4,3.6,25.2,6.3,27.9,31.4,31.4-25.2,3.6-27.9,6.3-31.4,31.4-3.5-25.1-6.2-27.8-31.4-31.4Z"></path>
    <path d="m1283.3,1373.7c25.2-3.6,27.9-6.3,31.4-31.4,3.6,25.2,6.3,27.9,31.4,31.4-25.2,3.6-27.9,6.3-31.4,31.4-3.5-25.1-6.2-27.9-31.4-31.4Z"></path>
    <path d="m1955.6,1247.9c25.2-3.6,27.9-6.3,31.4-31.4,3.6,25.2,6.3,27.9,31.4,31.4-25.2,3.6-27.9,6.3-31.4,31.4-3.5-25.1-6.2-27.8-31.4-31.4Z"></path>
    <path d="m1542,1972.7c25.2-3.6,27.9-6.3,31.4-31.4,3.6,25.2,6.3,27.9,31.4,31.4-25.2,3.6-27.9,6.3-31.4,31.4-3.5-25.1-6.3-27.8-31.4-31.4Z"></path>
    <path d="m486.4,2592.5c25.2-3.6,27.9-6.3,31.4-31.4,3.6,25.2,6.3,27.9,31.4,31.4-25.2,3.6-27.9,6.3-31.4,31.4-3.5-25.1-6.3-27.8-31.4-31.4Z"></path>
    <path d="m31.2,5200.2c25.2-3.6,27.9-6.3,31.4-31.4,3.6,25.2,6.3,27.9,31.4,31.4-25.2,3.6-27.9,6.3-31.4,31.4-3.6-25.1-6.3-27.9-31.4-31.4Z"></path>
    <path d="m156.4,2828.2c25.2-3.6,27.9-6.3,31.4-31.4,3.6,25.2,6.3,27.9,31.4,31.4-25.2,3.6-27.9,6.3-31.4,31.4-3.5-25.1-6.3-27.9-31.4-31.4Z"></path>
    <path d="m1320.8,2529.6c25.2-3.6,27.9-6.3,31.4-31.4,3.6,25.2,6.3,27.9,31.4,31.4-25.2,3.6-27.9,6.3-31.4,31.4-3.5-25.1-6.3-27.8-31.4-31.4Z"></path>
    <path d="m696.5,3691.8c25.2-3.6,27.9-6.3,31.4-31.4,3.6,25.2,6.3,27.9,31.4,31.4-25.2,3.6-27.9,6.3-31.4,31.4-3.5-25.1-6.3-27.8-31.4-31.4Z"></path>
    <path d="m1040,2765.3c25.2-3.6,27.9-6.3,31.4-31.4,3.6,25.2,6.3,27.9,31.4,31.4-25.2,3.6-27.9,6.3-31.4,31.4-3.5-25.1-6.2-27.9-31.4-31.4Z"></path>
    <path d="m31.2,4605.5c25.2-3.6,27.9-6.3,31.4-31.4,3.6,25.2,6.3,27.9,31.4,31.4-25.2,3.6-27.9,6.3-31.4,31.4-3.6-25.1-6.3-27.8-31.4-31.4Z"></path>
    <path d="m0,4802.7c25.2-3.6,27.9-6.3,31.4-31.4,3.6,25.2,6.3,27.9,31.4,31.4-25.2,3.6-27.9,6.3-31.4,31.4-3.5-25.2-6.2-27.9-31.4-31.4Z"></path>
    <path d="m727.9,4257.5c25.2-3.6,27.9-6.3,31.4-31.4,3.6,25.2,6.3,27.9,31.4,31.4-25.2,3.6-27.9,6.3-31.4,31.4-3.5-25.1-6.2-27.9-31.4-31.4Z"></path>
    <path d="m263,5963.2c25.2-3.6,27.9-6.3,31.4-31.4,3.6,25.2,6.3,27.9,31.4,31.4-25.2,3.6-27.9,6.3-31.4,31.4-3.5-25.1-6.2-27.8-31.4-31.4Z"></path>
    <path d="m528.2,7167.8c25.2-3.6,27.9-6.3,31.4-31.4,3.6,25.2,6.3,27.9,31.4,31.4-25.2,3.6-27.9,6.3-31.4,31.4-3.5-25.1-6.2-27.8-31.4-31.4Z"></path>
    <path d="m1115.5,6359.1c25.2-3.6,27.9-6.3,31.4-31.4,3.6,25.2,6.3,27.9,31.4,31.4-25.2,3.6-27.9,6.3-31.4,31.4-3.6-25.1-6.3-27.8-31.4-31.4Z"></path>
    <path d="m348.6,6390.3c25.2-3.6,27.9-6.3,31.4-31.4,3.6,25.2,6.3,27.9,31.4,31.4-25.2,3.6-27.9,6.3-31.4,31.4-3.5-25.1-6.3-27.9-31.4-31.4Z"></path>
    <path d="m835.5,8139.5c25.2-3.6,27.9-6.3,31.4-31.4,3.6,25.2,6.3,27.9,31.4,31.4-25.2,3.6-27.9,6.3-31.4,31.4-3.5-25.1-6.2-27.9-31.4-31.4Z"></path>
    <path d="m5616.1,8355.7c25.2-3.6,27.9-6.3,31.4-31.4,3.6,25.2,6.3,27.9,31.4,31.4-25.2,3.6-27.9,6.3-31.4,31.4-3.5-25.1-6.2-27.8-31.4-31.4Z"></path>
    <path d="m8187.5,7199c25.2-3.6,27.9-6.3,31.4-31.4,3.6,25.2,6.3,27.9,31.4,31.4-25.2,3.6-27.9,6.3-31.4,31.4-3.6-25.1-6.3-27.9-31.4-31.4Z"></path>
    <path d="m6738.7,8502.8c25.2-3.6,27.9-6.3,31.4-31.4,3.6,25.2,6.3,27.9,31.4,31.4-25.2,3.6-27.9,6.3-31.4,31.4-3.5-25.1-6.2-27.8-31.4-31.4Z"></path>
    <path d="m8218.9,7908.3c25.2-3.6,27.9-6.3,31.4-31.4,3.6,25.2,6.3,27.9,31.4,31.4-25.2,3.6-27.9,6.3-31.4,31.4-3.5-25.1-6.2-27.8-31.4-31.4Z"></path>
    <path d="m7828.2,8108c25.2-3.6,27.9-6.3,31.4-31.4,3.6,25.2,6.3,27.9,31.4,31.4-25.2,3.6-27.9,6.3-31.4,31.4-3.5-25.1-6.2-27.8-31.4-31.4Z"></path>
    <path d="m8253.9,8313.1c25.2-3.6,27.9-6.3,31.4-31.4,3.6,25.2,6.3,27.9,31.4,31.4-25.2,3.6-27.9,6.3-31.4,31.4-3.5-25.1-6.3-27.9-31.4-31.4Z"></path>
    <path d="m8692.2,4455.7c25.2-3.6,27.9-6.3,31.4-31.4,3.6,25.2,6.3,27.9,31.4,31.4-25.2,3.6-27.9,6.3-31.4,31.4-3.6-25.1-6.3-27.8-31.4-31.4Z"></path>
    <path d="m8124.6,1834.6c25.2-3.6,27.9-6.3,31.4-31.4,3.6,25.2,6.3,27.9,31.4,31.4-25.2,3.6-27.9,6.3-31.4,31.4-3.5-25.1-6.3-27.8-31.4-31.4Z"></path>
    <path d="m7796.8,1521.9c25.2-1.6,27.9-3.3,31.4-16.1,3.6,12.8,6.3,14.5,31.4,16.1-25.2,1.6-27.9,3.3-31.4,16.1-3.5-12.9-6.3-14.5-31.4-16.1Z"></path>
    <path d="m7654.3,942c25.2-1.6,27.9-3.3,31.4-16.1,3.6,12.8,6.3,14.5,31.4,16.1-25.2,1.6-27.9,3.3-31.4,16.1-3.5-12.8-6.2-14.5-31.4-16.1Z"></path>
    <path d="m8693.5,2561.1c25.2-3.6,27.9-6.3,31.4-31.4,3.6,25.2,6.3,27.9,31.4,31.4-25.2,3.6-27.9,6.3-31.4,31.4-3.5-25.2-6.2-27.9-31.4-31.4Z"></path>
    <path d="m8470.7,2035.6c25.2-3.6,27.9-6.3,31.4-31.4,3.6,25.2,6.3,27.9,31.4,31.4-25.2,3.6-27.9,6.3-31.4,31.4-3.5-25.1-6.2-27.9-31.4-31.4Z"></path>
    <path d="m8791.9,4065.6c25.2-3.6,27.9-6.3,31.4-31.4,3.6,25.2,6.3,27.9,31.4,31.4-25.2,3.6-27.9,6.3-31.4,31.4-3.5-25.1-6.2-27.9-31.4-31.4Z"></path>
    <path d="m8401.8,2331.4c25.2-3.6,27.9-6.3,31.4-31.4,3.6,25.2,6.3,27.9,31.4,31.4-25.2,3.6-27.9,6.3-31.4,31.4-3.5-25.1-6.2-27.8-31.4-31.4Z"></path>
    <path d="m7859.4,1310.5c25.2-3.6,27.9-6.3,31.4-31.4,3.6,25.2,6.3,27.9,31.4,31.4-25.2,3.6-27.9,6.3-31.4,31.4-3.5-25.1-6.3-27.8-31.4-31.4Z"></path>
    <path d="m5601.9,612.8c25.2-3.6,27.9-6.3,31.4-31.4,3.6,25.2,6.3,27.9,31.4,31.4-25.2,3.6-27.9,6.3-31.4,31.4-3.5-25.1-6.2-27.8-31.4-31.4Z"></path>
    <path d="m6840.4,798.7c25.2-3.6,27.9-6.3,31.4-31.4,3.6,25.2,6.3,27.9,31.4,31.4-25.2,3.6-27.9,6.3-31.4,31.4-3.5-25.1-6.2-27.8-31.4-31.4Z"></path>
    <path d="m835.5,989.6c25.2-3.6,27.9-6.3,31.4-31.4,3.6,25.2,6.3,27.9,31.4,31.4-25.2,3.6-27.9,6.3-31.4,31.4-3.5-25.1-6.2-27.9-31.4-31.4Z"></path>
    <path d="m6809,1247.9c25.2-3.6,27.9-6.3,31.4-31.4,3.6,25.2,6.3,27.9,31.4,31.4-25.2,3.6-27.9,6.3-31.4,31.4-3.5-25.1-6.3-27.8-31.4-31.4Z"></path>
    <path d="m6220.6,735.9c25.2-3.6,27.9-6.3,31.4-31.4,3.6,25.2,6.3,27.9,31.4,31.4-25.2,3.6-27.9,6.3-31.4,31.4-3.5-25.2-6.2-27.9-31.4-31.4Z"></path>
    <path d="m6683.5,767.3c25.2-3.6,27.9-6.3,31.4-31.4,3.6,25.2,6.3,27.9,31.4,31.4-25.2,3.6-27.9,6.3-31.4,31.4-3.5-25.1-6.3-27.9-31.4-31.4Z"></path>
    <path d="m8723.6,5028.8c25.2-3.6,27.9-6.3,31.4-31.4,3.6,25.2,6.3,27.9,31.4,31.4-25.2,3.6-27.9,6.3-31.4,31.4-3.5-25.2-6.3-27.9-31.4-31.4Z"></path>
    <path d="m8828.9,4773.1c25.2-3.6,27.9-6.3,31.4-31.4,3.6,25.2,6.3,27.9,31.4,31.4-25.2,3.6-27.9,6.3-31.4,31.4-3.6-25.1-6.3-27.8-31.4-31.4Z"></path>
    <path d="m8662.1,7266.8c25.2-3.6,27.9-6.3,31.4-31.4,3.6,25.2,6.3,27.9,31.4,31.4-25.2,3.6-27.9,6.3-31.4,31.4-3.5-25.1-6.3-27.9-31.4-31.4Z"></path>
    <path d="m6372.9,8714.7c25.2-3.6,27.9-6.3,31.4-31.4,3.6,25.2,6.3,27.9,31.4,31.4-25.2,3.6-27.9,6.3-31.4,31.4-3.5-25.1-6.3-27.8-31.4-31.4Z"></path>
    <path d="m5907.9,8746.2c25.2-3.6,27.9-6.3,31.4-31.4,3.6,25.2,6.3,27.9,31.4,31.4-25.2,3.6-27.9,6.3-31.4,31.4-3.5-25.2-6.3-27.9-31.4-31.4Z"></path>
    <path d="m1755.2,8387.2c25.2-3.6,27.9-6.3,31.4-31.4,3.6,25.2,6.3,27.9,31.4,31.4-25.2,3.6-27.9,6.3-31.4,31.4-3.5-25.1-6.2-27.9-31.4-31.4Z"></path>
    <path d="m727.9,1866.1c25.2-3.6,27.9-6.3,31.4-31.4,3.6,25.2,6.3,27.9,31.4,31.4-25.2,3.6-27.9,6.3-31.4,31.4-3.5-25.1-6.2-27.9-31.4-31.4Z"></path>
    <path d="m1314.8,8076.6c25.2-3.6,27.9-6.3,31.4-31.4,3.6,25.2,6.3,27.9,31.4,31.4-25.2,3.6-27.9,6.3-31.4,31.4-3.5-25.1-6.3-27.8-31.4-31.4Z"></path>
    <path d="m1146.9,7472.9c25.2-3.6,27.9-6.3,31.4-31.4,3.6,25.2,6.3,27.9,31.4,31.4-25.2,3.6-27.9,6.3-31.4,31.4-3.5-25.1-6.2-27.8-31.4-31.4Z"></path>
    <path d="m969.7,7369.6c25.2-3.6,27.9-6.3,31.4-31.4,3.6,25.2,6.3,27.9,31.4,31.4-25.2,3.6-27.9,6.3-31.4,31.4-3.5-25.1-6.2-27.9-31.4-31.4Z"></path>
    <path d="m680.8,6902.4c25.2-3.6,27.9-6.3,31.4-31.4,3.6,25.2,6.3,27.9,31.4,31.4-25.2,3.6-27.9,6.3-31.4,31.4-3.5-25.2-6.3-27.9-31.4-31.4Z"></path>
    <path d="m124.9,5444.3c25.2-3.6,27.9-6.3,31.4-31.4,3.6,25.2,6.3,27.9,31.4,31.4-25.2,3.6-27.9,6.3-31.4,31.4-3.5-25.1-6.2-27.8-31.4-31.4Z"></path>
  </svg>
</svg>
