<svg data-v-64ccf4d4="" id="overlay" class="maskOverlay planetarium" style="stroke: rgb(53, 53, 53); fill: rgb(53, 53, 53); position: absolute; width: 85%; ;"><!--?xml version="1.0" encoding="UTF-8"?--><svg id="Layer_1" xmlns="http://www.w3.org/2000/svg" viewBox="0 0 9000 9000"><defs><style>.cls-1{fill:none;stroke:#000;stroke-miterlimit:10;stroke-width:30px;}</style></defs><circle cx="7616.87" cy="7753.11" r="167.29"></circle><circle cx="1544.18" cy="1038.7" r="167.29"></circle><circle cx="1260.95" cy="987.26" r="51.43"></circle><ellipse cx="7616.87" cy="7753.11" rx="32.19" ry="230.06" transform="translate(-2109.71 12602.95) rotate(-72.01)"></ellipse><circle class="cls-1" cx="4500" cy="4500" r="4232.76"></circle><circle class="cls-1" cx="4500" cy="4500" r="4471.27"></circle><path d="m7909.43,8143.85c70.33-9.53,78.06-17.38,87.63-87.63,9.53,70.33,17.38,78.06,87.63,87.63-70.33,9.53-78.06,17.38-87.63,87.63-9.57-70.33-17.42-78.06-87.63-87.63Z"></path><path d="m856.39,1126.33c70.33-9.53,78.06-17.38,87.63-87.63,9.53,70.33,17.38,78.06,87.63,87.63-70.33,9.53-78.06,17.38-87.63,87.63-9.57-70.33-17.42-78.06-87.63-87.63Z"></path><path d="m8084.68,7705.25c38.41-5.21,42.63-9.49,47.86-47.86,5.21,38.41,9.49,42.63,47.86,47.86-38.41,5.21-42.63,9.49-47.86,47.86-5.23-38.41-9.51-42.63-47.86-47.86Z"></path><path d="m848.3,662c38.41-5.21,42.63-9.49,47.86-47.86,5.21,38.41,9.49,42.63,47.86,47.86-38.41,5.21-42.63,9.49-47.86,47.86-5.23-38.41-9.51-42.63-47.86-47.86Z"></path></svg></svg>