<svg data-v-665648a0="" id="overlay" class="maskOverlay rings" style="fill: rgb(53, 53, 53); stroke: rgb(53, 53, 53); position: absolute; width: 85%; ">  <!--?xml version="1.0" encoding="UTF-8"?-->
  <svg id="Layer_1"
    xmlns="http://www.w3.org/2000/svg" viewBox="0 0 9000 9000">
    <defs>
      <style>.cls-1{1e1e1e;}</style>
    </defs>
    <path class="cls-1" d="m4500,188.1C2118.6,188.1,188.1,2118.6,188.1,4500s1930.5,4311.9,4311.9,4311.9,4311.9-1930.5,4311.9-4311.9S6881.4,188.1,4500,188.1Zm0,8462.8c-2292.6,0-4151.1-1858.5-4151.1-4151,.1-2292.5,1858.6-4150.9,4151.1-4150.9s4151.1,1858.5,4151.1,4151-1858.5,4151-4151.1,4151v-.1h0Z"></path>
    <path class="cls-1" d="m4500,0C2014.7,0,0,2014.7,0,4500s2014.7,4500,4500,4500,4500-2014.7,4500-4500S6985.3,0,4500,0Zm0,8925.5c-2444.2,0-4425.7-1981.4-4425.7-4425.6C74.4,2055.7,2055.8,74.4,4500,74.4s4425.7,1981.4,4425.7,4425.6-1981.5,4425.6-4425.7,4425.6v-.1Z"></path>
  </svg>
</svg>
