<svg data-v-665648a0="" id="overlay" class="maskOverlay sparkle" style="fill: rgb(53, 53, 53); stroke: rgb(53, 53, 53); position: absolute; width: 85%; ">  <!--?xml version="1.0" encoding="utf-8"?-->
  <!-- Generator: Adobe Illustrator 27.3.1, SVG Export Plug-In . SVG Version: 6.00 Build 0)  -->
  <svg version="1.1" id="Layer_1"
    xmlns="http://www.w3.org/2000/svg"
    xmlns:xlink="http://www.w3.org/1999/xlink" x="0px" y="0px" viewBox="0 0 9000 9000" style="enable-background:new 0 0 9000 9000;" xml:space="preserve">
    <path d="M8371.1,318.3c298-2.5,542.6,246.8,541.1,545.1c-1.4,277.8-225,539-543.7,538.5c-309.3-0.4-543.3-252.8-541-545.7
	C7830,549,8083.3,314.2,8371.1,318.3z"></path>
    <path d="M1262,1227.4c-7.7-4.7-21.6-9.5-29.8-19.2c-13.5-16-25.2-34.2-34.4-53c-20.7-42.4-32.5-88-42.4-134
	c-15.3-71.3-46.9-134.1-97.9-186.7C1006.7,781.9,945.3,748,874.5,730c-42.5-10.8-84.8-22.8-126.4-36.6
	c-19.9-6.6-38.7-17.4-56.5-28.7c-11.2-7.1-20.9-17.6-28.8-28.3c-10.9-14.8-9.8-31.3,0.3-46.8c12-18.4,29.7-30.1,48.6-40
	c43.3-22.6,89.9-35.8,137.1-47c17.7-4.2,35.7-7.6,52.8-13.4c125-42.6,207.6-126.9,245.8-253.6c10.5-34.8,17.2-70.7,28-105.3
	c8.1-25.9,18.8-51.2,30.9-75.5c7.3-14.6,18-28.2,29.7-39.7c19.8-19.5,45.6-20.1,64.8-0.7c13.6,13.8,26.4,30.1,34.1,47.6
	c14.6,33.1,26,67.8,37.4,102.2c5.7,17.2,7.9,35.5,12.6,53c38.2,143.9,128,237.4,272,277.7c40.8,11.4,82.1,21.3,122.2,34.9
	c24.1,8.2,47.9,19.7,68.9,34c46.9,31.9,46.7,68.8-1.1,100.2c-23.8,15.6-50.6,27.6-77.5,37.2c-32.7,11.6-66.8,19.5-100.6,28
	c-152.4,38.6-246.3,134.7-285.3,286.5c-11.3,43.9-23.9,87.7-39.6,130.2c-8.2,22.2-23.4,42.2-37.4,61.7
	C1297.7,1220.2,1283.4,1226.6,1262,1227.4z"></path>
    <path d="M536.2,5766.3c37.1,111.2,80.8,220.2,129.1,327.4c0.8,1.8-0.2,4.4-0.5,8.6c-8.8-0.6-17.7-0.5-26.3-2
	c-118.4-19.8-235-46.7-346.9-91.2c-54.2-21.5-106.3-47.5-153.9-81.6c-27-19.3-52.1-40.9-73.7-66.3C3,5789.5-14,5708.2,11.3,5617.9
	c12.8-45.5,34.5-86.9,60.6-126c29.2-43.9,63.3-83.8,100.1-121.5c64.9-66.4,136.5-124.8,211.3-179.4c4.5-3.3,9.5-5.9,13.4-8.3
	c8.9,2.1,8.2,8.5,8.9,13.8c13.3,98.5,30.4,196.2,53.3,293c1.8,7.6,2.1,15.6,3.1,23.3c-10.9,12.9-21.4,24.9-31.3,37.4
	c-13.6,17-24.8,35.5-32,56.3c-12.9,37.4-4.4,69.7,22.9,97.5c18.7,19.1,41.5,32.1,65.7,42.6C502.9,5753.2,518.8,5759.3,536.2,5766.3z
	">    </path>
    <path d="M8632.9,3810.8c7.2-8.1,15.3-17.2,23.2-26.4c15.3-17.9,28.6-37,37.2-59.1c15.3-39.4,8.4-75-22.9-103.4
	c-13.8-12.5-30.6-22-46.5-32c-9.4-5.8-19.8-9.9-31.6-15.7c-10.9-45.4-21.5-91.9-33.4-138.1c-11.8-46-24.8-91.8-38-140.6
	c9.1,0.6,15.7,0.1,21.7,1.6c83.1,21.3,165,46.3,241.4,86.2c31.5,16.4,62.2,34.9,90.9,55.8c23.2,16.9,44.7,37.1,63.4,58.8
	c58.1,67.3,74.9,144.9,51.9,230.8c-9.2,34.6-24,66.9-41.9,97.9c-29.8,51.4-67.1,96.9-107.9,139.8
	c-51.6,54.1-108.2,102.6-167.3,148.2c-4.3,3.3-9.1,5.9-15.9,10.2c-1.7-5.4-3.9-9-4-12.8c-2.2-92.4-9.2-184.5-19.9-276.4
	C8632.1,3828.1,8632.9,3820.2,8632.9,3810.8z"></path>
    <path d="M8137.2,8530.8c-2.8,4.9-6,16.2-13.4,22.4c-13.8,11.4-29.1,22.4-45.6,28.9c-29.5,11.6-60.3,19.8-90.6,29.2
	c-23.1,7.2-47.4,11.6-69.2,21.5c-85.1,38.8-139.5,104.3-163.7,194.8c-8.6,32.2-16.4,64.7-27.5,96c-7,19.7-17.2,39-29.8,55.7
	c-20.8,27.7-46.8,27.6-67.6-0.4c-12.5-16.7-22.5-36.2-29.7-55.8c-10.4-28.3-18.3-57.7-25.6-87.1c-29.1-116.6-101.7-189.6-217.4-221
	c-35-9.5-70.2-19-104.1-31.5c-18-6.7-35.1-18.1-49.7-30.7c-19-16.4-18.9-38.8,0.3-55.2c14.7-12.6,31.8-23.9,49.8-30.7
	c31-11.8,63.2-20.9,95.4-29c119.7-30,196.2-102.9,225.8-223.6c4-16.2,7.4-32.6,12.9-48.2c9.1-25.6,18.4-51.3,30.1-75.8
	c5.6-11.9,15.6-22.4,25.5-31.3c11.8-10.5,29.8-10.3,41.9,0.1c9,7.8,17.6,17.1,23.2,27.5c10,18.6,18.9,38,25.8,58
	c7.9,22.9,13.4,46.6,19.2,70.1c29.1,118.8,104.3,191.4,221.7,222.3c32.1,8.5,64.4,17.1,95.6,28.5c18.1,6.6,34.8,18,50.9,29.1
	C8131.2,8501.3,8137.4,8512.3,8137.2,8530.8z"></path>
    <path d="M8910.9,7579.9c-2.6,4.9-5.3,16.4-12.6,22.5c-13.7,11.6-28.8,22.9-45.3,29.3c-32.4,12.5-65.6,23.5-99.3,31.6
	c-122.3,29.4-198.3,104.1-228.1,226.5c-7.5,30.8-16.7,61.4-27.5,91.2c-6.1,16.8-15.4,33.1-26.3,47.4c-20.9,27.6-46.8,28-68.1,1.6
	c-9.4-11.6-17.3-25.1-22.9-38.9c-9.6-23.8-17.3-48.4-25-72.9c-4.1-13-6-26.6-9.6-39.7c-30.7-112.1-102.9-182.3-214.6-212.9
	c-33.5-9.2-67.3-17.9-100.1-29.3c-16.9-5.9-33.2-15.4-47.4-26.3c-28.1-21.5-28.3-46-1.3-67.7c11.6-9.4,25-17.4,38.9-23
	c25.2-10.1,51.4-17.9,77.3-26.4c5.7-1.9,11.9-2.3,17.8-3.7c125.8-29.2,204.2-105.8,233.6-232.4c6.8-29.4,15.8-58.5,26.3-86.8
	c6.2-16.8,15.4-33.2,26.2-47.4c21.5-28.3,45.4-28.5,67.6-1.6c8.6,10.4,16.2,22.3,21.2,34.7c10.1,25.2,18.5,51.2,26.8,77.1
	c4.1,12.9,6,26.6,9.7,39.7c30.2,110,99.8,180.9,210.1,211.5c32.1,8.9,64.7,16.3,95.9,27.7c21,7.7,40.4,20.3,59.5,32.3
	C8903.8,7550.5,8910.5,7561.2,8910.9,7579.9z"></path>
    <path d="M453.6,1846.7c-8.6-4.8-16.8-7-21-12.4c-8.2-10.6-16-22.4-20.6-34.9c-7.8-21.2-13.5-43.3-19.4-65.2
	c-20-73.9-67.6-119.3-140.9-139.6c-26.1-7.2-52-15.6-77.4-25.3c-14.1-5.4-28.5-13.8-29.2-31.5c-0.8-20.2,15.3-28.9,30.6-35.2
	c22.3-9.1,45.2-17.7,68.6-23.2c82.1-19.2,131.8-69.3,150.9-151.2c4.8-20.5,11.7-40.7,19.1-60.5c3.6-9.7,9.7-18.9,16.3-27
	c12.6-15.7,30.2-16.2,42.1-0.1c8.8,12,16,25.7,21.2,39.6c6.9,18.3,11.4,37.6,16.5,56.5c19.9,73.5,65.7,120.8,139.8,140.3
	c20.5,5.4,41.2,10.5,60.8,18c13.9,5.3,27.2,13.3,38.9,22.5c13.5,10.6,12.7,28.1-1.2,39c-9.4,7.4-19.9,14.2-31,18.3
	c-19.8,7.4-40.1,13.7-60.6,18.7c-79.8,19.4-129,68.7-148,148.6c-7,29.4-13.8,59.3-31.8,84.4C471.6,1834.8,461.9,1839.9,453.6,1846.7
	z"></path>
  </svg>
</svg>
