<svg data-v-665648a0="" id="overlay" class="maskOverlay" style="fill: rgb(53, 53, 53); stroke: rgb(53, 53, 53); position: absolute; width: 85%; "><!--?xml version="1.0" encoding="UTF-8"?--><svg id="Layer_1" xmlns="http://www.w3.org/2000/svg" viewBox="0 0 9000 9000"><path d="m9000,377.5V0h-377.5v322.7H377.5V0H0v377.5h322.7v8245.1H0v377.4h377.5v-322.7h8245.1v322.7h377.4v-377.5h-322.8V377.5h322.8Zm-322.7-322.7h267.8v267.8h-267.8V54.8ZM54.8,322.7V54.8h267.8v267.8H54.8v.1Zm267.9,8622.5H54.8v-267.8h267.8v267.8h.1Zm8299.7-322.7H377.5V377.5h8244.9v8245Zm54.9,54.8h267.8v267.8h-267.8v-267.8Z"></path><rect x="536.7" y="322.7" width="1096.6" height="54.8"></rect><rect x="322.7" y="480.6" width="54.8" height="805.8"></rect><rect x="8622.4" y="732.4" width="54.8" height="805.8"></rect><rect x="1261.2" y="8622.5" width="956.9" height="54.8"></rect></svg></svg>