<svg data-v-665648a0="" id="overlay" class="maskOverlay deco" style="fill: rgb(53, 53, 53); stroke: rgb(53, 53, 53); position: absolute; width: 85%; "><!--?xml version="1.0" encoding="UTF-8"?--><svg id="Layer_1" xmlns="http://www.w3.org/2000/svg" viewBox="0 0 9000 9000"><defs><style>.cls-1{fill:none;stroke:#000;stroke-miterlimit:9.1;stroke-width:18.2px;}</style></defs><g><path class="cls-1" d="m8967,274.23l-178.9,74c-10.6-24.9-24.7-48-42.4-67.5-2.9-3.6-5.9-7.1-9.4-10.7l9.4-9.5,127.7-128.5c39.5,40.4,71.9,89,93.6,142.2Z"></path><path class="cls-1" d="m8346.3,338.43c-10,23.1-18.5,57.9-20.3,84.5h-3154.6"></path><path class="cls-1" d="m8331.3,341.73l-166-69.9c2.4-5.3,4.7-10.7,7.7-16,21.2-46.8,50.6-88.8,85.9-124.3h.6l136.6,137.4c-20.6,20.7-37.7,45.6-49.4,72.8"></path><line class="cls-1" x1="5171.4" y1="341.73" x2="8331.3" y2="341.73"></line><path class="cls-1" d="m8653.9,665.63v3694.8"></path><path class="cls-1" d="m8746.3,950.43v3409.4"></path><path class="cls-1" d="m5171.4,255.93l2883.8-1.2"></path><path class="cls-1" d="m8967,274.23l-178.9,74c11.8,28.4,18.2,59.8,18.2,92.4s-6.5,65.1-18.8,93.5l178.9,75.2c21.8-51.5,33.6-108.9,33.6-168.7s-11.8-114.8-33-166.4Zm-309.6,390.2c-1.2.6-2.4,1.2-3.5,1.2-27.1,11.2-57.1,17.2-88.3,17.2v194.2c30,0,60-3,88.3-8.9,26.5-5.9,52.4-14.2,77.1-24.3l-73.6-179.4ZM8565.6,3.73c-58.3,0-114.2,11.8-165.4,33.2l73.6,180c28.3-11.8,59.5-18.4,91.8-18.4s64.8,6.5,93,18.9l74.8-180c-51.3-21.9-108.4-33.7-167.8-33.7Zm-219,338l-181.3-69.9c-9.4,22.5-17.1,45.6-21.8,69.9l510.9-1.2v323.9c-27.1,11.2-57.1,17.2-88.3,17.2v3678.2"></path><path class="cls-1" d="m8966.4,609.43c-22.4,53.3-54.7,100.7-94.8,140.3l-126-126.7-10.6-10.7c3.5-3.6,7.1-7.1,10.6-11.2,17.7-19.5,31.2-42,41.8-66.9l179,75.2Z"></path><path class="cls-1" d="m8871.7,749.73c-36.5,36.7-78.9,66.3-126,87.6-4.7,2.4-9.4,4.7-14.7,6.5l-73.6-179.4c29.4-12.4,55.3-30.2,77.7-52.1l10.6,10.7,126,126.7Z"></path><path class="cls-1" d="m8473.8,216.83c-23.5,10.1-44.1,23.1-63,39.1-5.3,4.1-10,8.3-14.7,13l-136.6-137.4c40-40.3,87.7-72.8,140.7-94.7l73.6,180Z"></path><path class="cls-1" d="m8873.4,132.13l-127.7,128.5-9.4,9.5c-4.7-5.3-10-10.1-15.3-14.2-18.2-16-39.4-29-62.4-38.5l74.8-180c52.9,22.5,100,55.1,140,94.7Z"></path><line class="cls-1" x1="8565.6" y1="198.53" x2="8565.6" y2="3.73"></line><line class="cls-1" x1="9000" y1="440.63" x2="8806.3" y2="440.63"></line></g><g><path class="cls-1" d="m33,274.23l178.9,74c10.6-24.9,24.7-48,42.4-67.5,2.9-3.6,5.9-7.1,9.4-10.7l-9.4-9.5-127.7-128.4c-39.5,40.3-71.9,88.9-93.6,142.1Z"></path><path class="cls-1" d="m653.7,338.43c10,23.1,18.5,57.9,20.3,84.5h4498.4"></path><path class="cls-1" d="m668.7,341.73l166-69.9c-2.4-5.3-4.7-10.7-7.7-16-21.2-46.8-50.6-88.8-85.9-124.3h-.6l-136.6,137.4c20.6,20.7,37.7,45.6,49.4,72.8"></path><line class="cls-1" x1="5172.4" y1="341.73" x2="668.7" y2="341.73"></line><path class="cls-1" d="m346.1,665.63v3613.9"></path><path class="cls-1" d="m253.7,950.43v3328.5"></path><path class="cls-1" d="m5172.4,255.93l-4227.7-1.2"></path><path class="cls-1" d="m33,274.23l178.9,74c-11.8,28.4-18.2,59.8-18.2,92.4s6.5,65.1,18.8,93.5l-178.9,75.3C11.8,557.83,0,500.43,0,440.63s11.8-114.8,33-166.4Zm309.6,390.2c1.2.6,2.4,1.2,3.5,1.2,27.1,11.2,57.1,17.2,88.3,17.2v194.2c-30,0-60-3-88.3-8.9-26.5-5.9-52.4-14.2-77.1-24.3l73.6-179.4ZM434.4,3.73c58.3,0,114.2,11.8,165.4,33.2l-73.6,180c-28.3-11.8-59.5-18.4-91.8-18.4s-64.7,6.5-93,18.9l-74.8-180C317.9,15.53,375,3.73,434.4,3.73Zm219,338l181.3-69.9c9.4,22.5,17.1,45.6,21.8,69.9l-511-1.1v323.9c27.1,11.2,57.1,17.2,88.3,17.2v3597.3"></path><path class="cls-1" d="m33.6,609.43c22.4,53.3,54.7,100.7,94.8,140.3l126-126.7,10.6-10.7c-3.5-3.6-7.1-7.1-10.6-11.2-17.7-19.5-31.2-42-41.8-66.9l-179,75.2Z"></path><path class="cls-1" d="m128.3,749.73c36.5,36.7,78.9,66.3,126,87.6,4.7,2.4,9.4,4.7,14.7,6.5l73.6-179.4c-29.4-12.4-55.3-30.2-77.7-52.1l-10.6,10.7-126,126.7Z"></path><path class="cls-1" d="m526.2,216.83c23.5,10.1,44.1,23.1,63,39.1,5.3,4.1,10,8.3,14.7,13l136.6-137.4c-40-40.3-87.7-72.8-140.7-94.7l-73.6,180Z"></path><path class="cls-1" d="m126.6,132.13l127.7,128.5,9.4,9.5c4.7-5.3,10-10.1,15.3-14.2,18.2-16,39.4-29,62.4-38.5l-74.8-180c-52.9,22.5-100,55.1-140,94.7Z"></path><line class="cls-1" x1="434.4" y1="198.53" x2="434.4" y2="3.73"></line><line class="cls-1" x1="0" y1="440.63" x2="193.7" y2="440.63"></line></g><g><path class="cls-1" d="m8967,8733.13l-178.9-74c-10.6,24.9-24.7,48-42.4,67.5-2.9,3.6-5.9,7.1-9.4,10.7l9.4,9.5,127.7,128.5c39.5-40.4,71.9-88.9,93.6-142.2Z"></path><path class="cls-1" d="m8346.3,8669.03c-10-23.1-18.5-57.9-20.3-84.5h-3817.1"></path><path class="cls-1" d="m8331.3,8665.63l-166,69.9c2.4,5.3,4.7,10.7,7.7,16,21.2,46.8,50.6,88.8,85.9,124.3h.6l136.6-137.4c-20.6-20.7-37.7-45.6-49.4-72.8"></path><line class="cls-1" x1="4508.9" y1="8665.63" x2="8331.3" y2="8665.63"></line><path class="cls-1" d="m8653.9,8341.73v-4061.7"></path><path class="cls-1" d="m8746.3,8056.93v-3776.3"></path><path class="cls-1" d="m4508.9,8751.43l3546.4,1.2"></path><path class="cls-1" d="m8967,8733.13l-178.9-74c11.8-28.4,18.2-59.8,18.2-92.4s-6.5-65.1-18.8-93.5l178.9-75.2c21.8,51.5,33.6,108.9,33.6,168.7s-11.8,114.9-33,166.4Zm-309.6-390.2c-1.2-.6-2.4-1.2-3.5-1.2-27.1-11.2-57.1-17.2-88.3-17.2v-194.2c30,0,60,3,88.3,8.9,26.5,5.9,52.4,14.2,77.1,24.3l-73.6,179.4Zm-91.8,660.8c-58.3,0-114.2-11.8-165.4-33.2l73.6-180c28.3,11.8,59.5,18.4,91.8,18.4s64.8-6.5,93-18.9l74.8,180c-51.3,21.8-108.4,33.7-167.8,33.7Zm-219-338.1l-181.3,69.9c-9.4-22.5-17.1-45.6-21.8-69.9l510.9,1.2v-323.9c-27.1-11.2-57.1-17.2-88.3-17.2v-4045.1"></path><path class="cls-1" d="m8966.4,8398.03c-22.4-53.3-54.7-100.7-94.8-140.3l-126,126.7-10.6,10.7c3.5,3.6,7.1,7.1,10.6,11.2,17.7,19.5,31.2,42,41.8,66.9l179-75.2Z"></path><path class="cls-1" d="m8871.7,8257.63c-36.5-36.7-78.9-66.3-126-87.6-4.7-2.4-9.4-4.7-14.7-6.5l-73.6,179.4c29.4,12.4,55.3,30.2,77.7,52.1l10.6-10.7,126-126.7Z"></path><path class="cls-1" d="m8473.8,8790.53c-23.5-10.1-44.1-23.1-63-39.1-5.3-4.1-10-8.3-14.7-13l-136.6,137.4c40,40.3,87.7,72.8,140.7,94.7l73.6-180Z"></path><path class="cls-1" d="m8873.4,8875.23l-127.7-128.5-9.4-9.5c-4.7,5.3-10,10.1-15.3,14.2-18.2,16-39.4,29-62.4,38.5l74.8,180c52.9-22.5,100-55.1,140-94.7Z"></path><line class="cls-1" x1="8565.6" y1="8808.93" x2="8565.6" y2="9003.73"></line><line class="cls-1" x1="9000" y1="8566.73" x2="8806.3" y2="8566.73"></line></g><g><path class="cls-1" d="m33,8733.13l178.9-74c10.6,24.9,24.7,48,42.4,67.5,2.9,3.6,5.9,7.1,9.4,10.7l-9.4,9.5-127.7,128.5c-39.5-40.4-71.9-88.9-93.6-142.2Z"></path><path class="cls-1" d="m653.7,8669.03c10-23.1,18.5-57.9,20.3-84.5h3835.9"></path><path class="cls-1" d="m668.7,8665.63l166,69.9c-2.4,5.3-4.7,10.7-7.7,16-21.2,46.8-50.6,88.8-85.9,124.3h-.6l-136.6-137.4c20.6-20.7,37.7-45.6,49.4-72.8"></path><line class="cls-1" x1="4509.9" y1="8665.63" x2="668.7" y2="8665.63"></line><path class="cls-1" d="m346.1,8341.73v-4064.4"></path><path class="cls-1" d="m253.7,8056.93v-3779"></path><path class="cls-1" d="m4509.9,8751.43l-3565.1,1.2"></path><path class="cls-1" d="m33,8733.13l178.9-74c-11.8-28.4-18.2-59.8-18.2-92.4s6.5-65.1,18.8-93.5l-178.9-75.2C11.8,8449.53,0,8506.93,0,8566.73s11.8,114.9,33,166.4Zm309.6-390.2c1.2-.6,2.4-1.2,3.5-1.2,27.1-11.2,57.1-17.2,88.3-17.2v-194.2c-30,0-60,3-88.3,8.9-26.5,5.9-52.4,14.2-77.1,24.3l73.6,179.4Zm91.8,660.8c58.3,0,114.2-11.8,165.4-33.2l-73.6-180c-28.3,11.8-59.5,18.4-91.8,18.4s-64.7-6.5-93-18.9l-74.8,180c51.3,21.8,108.4,33.7,167.8,33.7Zm219-338.1l181.3,69.9c9.4-22.5,17.1-45.6,21.8-69.9l-510.9,1.2v-323.9c27.1-11.2,57.1-17.2,88.3-17.2v-4047.8"></path><path class="cls-1" d="m33.6,8398.03c22.4-53.3,54.7-100.7,94.8-140.3l126,126.7,10.6,10.7c-3.5,3.6-7.1,7.1-10.6,11.2-17.7,19.5-31.2,42-41.8,66.9l-179-75.2Z"></path><path class="cls-1" d="m128.3,8257.63c36.5-36.7,78.9-66.3,126-87.6,4.7-2.4,9.4-4.7,14.7-6.5l73.6,179.4c-29.4,12.4-55.3,30.2-77.7,52.1l-10.6-10.7-126-126.7Z"></path><path class="cls-1" d="m526.2,8790.53c23.5-10.1,44.1-23.1,63-39.1,5.3-4.1,10-8.3,14.7-13l136.6,137.4c-40,40.3-87.7,72.8-140.7,94.7l-73.6-180Z"></path><path class="cls-1" d="m126.6,8875.23l127.7-128.5,9.4-9.5c4.7,5.3,10,10.1,15.3,14.2,18.2,16,39.4,29,62.4,38.5l-74.8,180c-52.9-22.5-100-55.1-140-94.7Z"></path><line class="cls-1" x1="434.4" y1="8808.93" x2="434.4" y2="9003.73"></line><line class="cls-1" x1="0" y1="8566.73" x2="193.7" y2="8566.73"></line></g></svg></svg>